<?xml version="1.0" standalone="no"?>
<!DOCTYPE svg PUBLIC "-//W3C//DTD SVG 20010904//EN"
 "http://www.w3.org/TR/2001/REC-SVG-20010904/DTD/svg10.dtd">
<svg version="1.0" xmlns="http://www.w3.org/2000/svg"
 width="376.000000pt" height="376.000000pt" viewBox="0 0 376.000000 376.000000"
 preserveAspectRatio="xMidYMid meet">
<metadata>
Created by potrace 1.14, written by Peter Selinger 2001-2017
</metadata>
<g transform="translate(0.000000,376.000000) scale(0.100000,-0.100000)"
fill="#000000" stroke="none">
<path d="M2427 3644 c-3 -3 -40 -6 -84 -6 -43 0 -83 -4 -89 -9 -6 -5 -27 -11
-48 -14 -169 -27 -350 -153 -455 -317 -38 -60 -71 -87 -71 -58 0 6 -9 10 -21
10 -13 0 -18 4 -13 12 4 6 3 8 -3 5 -5 -3 -32 1 -59 9 -52 16 -209 21 -284 9
-160 -25 -292 -120 -371 -268 -17 -32 -42 -63 -57 -71 -15 -7 -65 -16 -112
-19 -105 -8 -174 -26 -265 -71 -151 -75 -285 -231 -343 -401 -54 -154 -32
-408 46 -547 40 -72 57 -98 65 -98 4 0 7 -4 7 -10 0 -5 20 -28 45 -51 25 -23
42 -46 38 -52 -3 -5 -1 -7 4 -4 12 8 85 -47 76 -57 -3 -3 2 -6 11 -6 10 0 30
-8 44 -19 33 -23 171 -73 182 -66 5 3 11 1 15 -5 4 -6 11 -7 17 -4 7 5 9 2 6
-7 -4 -10 1 -15 13 -16 10 -1 19 3 19 8 0 6 -5 7 -12 3 -7 -4 -8 -3 -4 4 4 6
13 9 21 6 8 -4 12 -10 9 -15 -3 -5 0 -9 5 -9 6 0 11 4 11 9 0 5 25 9 55 9 33
-1 55 -5 55 -12 0 -8 2 -8 8 0 10 15 40 25 47 14 3 -5 12 -7 20 -3 8 3 15 1
15 -4 0 -4 10 -14 23 -22 22 -14 22 -14 3 8 -11 11 -16 24 -13 28 4 3 7 2 7
-3 0 -5 22 -9 49 -9 27 -1 48 2 46 5 -2 3 52 4 118 3 76 -2 121 -7 119 -13 -1
-5 2 -10 8 -10 5 0 10 8 10 18 0 14 2 14 9 3 5 -8 7 -21 4 -30 -4 -14 -3 -14
5 -1 6 8 8 18 6 22 -3 4 6 8 20 8 14 0 26 -6 26 -12 0 -10 2 -10 8 -1 4 6 26
12 49 11 23 0 47 3 54 7 7 5 10 4 5 -3 -3 -6 -2 -13 4 -17 5 -3 10 -2 10 3 0
5 16 9 35 10 26 1 34 -2 29 -11 -5 -9 -4 -9 7 1 7 6 24 12 37 12 19 0 23 -4
20 -18 -3 -12 0 -19 9 -19 8 0 11 7 7 19 -4 14 0 18 21 18 18 0 24 -4 19 -12
-6 -10 -4 -10 7 -1 7 7 18 13 24 13 5 0 3 -5 -5 -11 -13 -9 -13 -10 0 -8 27 3
41 -1 36 -9 -2 -4 3 -8 13 -8 10 0 18 6 18 13 0 7 -4 10 -8 8 -10 -7 -39 5
-39 17 0 5 6 6 13 1 6 -4 20 -6 30 -4 17 2 19 -4 15 -53 -1 -31 -1 -56 2 -56
6 0 1 -203 -5 -208 -2 -2 -284 -4 -627 -4 -441 -1 -637 -4 -673 -13 -96 -22
-160 -79 -194 -172 -14 -39 -22 -47 -68 -67 -97 -41 -135 -98 -138 -206 -1
-72 15 -124 50 -163 13 -13 21 -28 17 -33 -4 -4 -2 -4 5 -1 6 4 18 0 26 -8 9
-8 20 -15 26 -15 6 0 11 -4 11 -10 0 -5 6 -9 13 -7 6 1 11 -5 9 -13 -3 -12 -1
-12 9 -3 14 14 42 5 32 -11 -11 -17 -12 -37 -2 -30 5 3 7 9 4 14 -7 12 22 33
36 25 6 -4 14 -3 18 3 4 6 11 5 19 -4 10 -11 8 -13 -18 -10 -16 2 -27 0 -25
-5 7 -10 47 -8 62 3 7 6 15 3 22 -9 10 -17 10 -17 11 0 0 9 5 17 11 17 5 0 7
-5 3 -11 -4 -7 1 -7 15 1 18 9 20 14 10 26 -6 8 -14 14 -16 14 -3 0 0 -7 7
-15 9 -10 9 -15 1 -15 -6 0 -11 5 -11 11 0 8 -4 8 -13 1 -7 -6 -20 -10 -30 -8
-21 3 -31 12 -14 14 28 2 48 9 58 19 14 14 39 6 58 -16 13 -15 13 -15 8 1 -4
12 2 20 21 27 25 11 25 11 2 6 -24 -4 -24 -4 5 19 17 13 34 22 39 19 5 -4 6
-1 2 5 -4 6 -2 21 5 33 6 12 7 19 1 15 -6 -3 -13 0 -16 6 -3 7 -3 2 0 -11 4
-15 2 -21 -4 -17 -6 3 -14 1 -18 -5 -4 -8 -3 -9 4 -5 7 4 12 2 12 -3 0 -13
-10 -14 -30 -1 -9 6 -10 10 -3 10 10 0 22 21 29 53 1 4 3 8 4 10 13 12 12 157
-1 157 -4 0 -12 14 -19 30 -7 16 -17 30 -22 30 -5 0 -7 4 -3 9 3 5 -4 12 -15
16 -11 3 -20 13 -20 20 0 8 -5 17 -12 21 -7 5 -9 2 -4 -7 5 -8 2 -8 -6 2 -7 9
-20 14 -28 12 -8 -2 -4 6 10 18 15 14 18 20 8 16 -12 -4 -16 -1 -15 14 1 19
21 26 30 12 2 -5 2 -2 0 5 -2 9 4 11 20 7 17 -5 19 -4 7 4 -15 11 -7 14 42 14
10 0 14 5 11 14 -3 8 -12 12 -19 9 -8 -3 -21 -9 -29 -12 -12 -5 -14 -2 -8 12
6 16 5 17 -9 4 -9 -9 -12 -18 -6 -21 5 -3 2 -9 -7 -13 -9 -3 -21 -4 -26 0 -8
5 -13 -10 -10 -29 1 -5 -4 -5 -10 -2 -8 6 -8 2 0 -13 8 -15 7 -21 -3 -25 -8
-3 -17 1 -20 9 -6 16 2 44 14 44 4 0 11 10 15 22 4 14 8 18 12 11 7 -18 24
-16 17 1 -5 12 11 24 41 32 6 1 17 5 27 9 11 4 18 0 23 -16 6 -17 9 -19 16 -8
8 12 11 12 20 -1 8 -12 9 -11 4 7 -3 12 -1 24 5 28 9 6 15 -16 10 -40 -1 -5 2
-7 6 -3 4 4 14 2 22 -5 11 -8 10 -4 -3 16 l-18 28 54 -3 c30 -1 60 1 67 5 8 5
12 3 12 -7 0 -9 -4 -16 -10 -16 -5 0 -10 -4 -10 -8 0 -5 7 -9 14 -9 8 0 14 3
14 6 -3 17 15 38 30 34 9 -2 42 -5 72 -6 49 -2 55 -4 52 -22 -3 -18 -2 -18 13
3 17 23 72 33 59 10 -6 -10 -4 -10 7 0 18 17 83 17 73 0 -5 -9 -3 -9 9 1 11 9
29 11 51 7 28 -5 33 -10 30 -29 -4 -20 -4 -21 4 -2 5 11 7 27 5 35 -3 10 -1 9
7 -2 6 -10 16 -18 23 -18 7 0 6 4 -3 10 -13 8 -12 10 3 10 9 0 17 -8 18 -17 5
-111 2 -483 -4 -483 -4 0 -6 -5 -5 -12 2 -6 -12 -21 -30 -32 -18 -12 -47 -30
-64 -41 -76 -50 -105 -181 -59 -274 11 -24 18 -48 15 -52 -3 -5 2 -6 10 -3 9
3 16 1 16 -6 0 -13 30 -46 30 -33 0 4 4 4 8 -2 4 -5 16 -15 27 -22 11 -6 19
-17 17 -24 -2 -9 0 -10 10 -1 17 13 61 4 51 -11 -4 -6 -1 -7 8 -1 8 5 25 10
39 11 34 2 52 7 69 18 10 5 16 4 19 -3 2 -7 8 -12 13 -12 4 0 6 6 3 13 -3 8 2
20 11 27 8 7 15 9 15 5 0 -4 12 5 27 21 15 16 26 33 25 38 -2 4 3 15 10 23 7
8 14 22 15 32 2 9 5 23 8 31 2 8 4 20 4 25 1 6 6 3 11 -5 5 -8 10 -10 10 -5 0
6 -5 16 -12 23 -8 8 -8 12 -1 12 6 0 14 7 17 16 6 15 4 15 -11 3 -15 -12 -16
-12 -10 3 3 9 1 19 -6 22 -7 3 -2 3 11 0 12 -3 22 -1 22 5 0 6 -3 10 -7 10
-21 -3 -33 2 -33 15 0 8 6 17 13 19 7 4 6 6 -4 6 -21 1 -31 25 -17 39 8 8 5 9
-11 5 -15 -4 -21 -1 -21 11 0 9 -4 16 -9 16 -5 0 -16 6 -23 13 -7 7 -29 20
-48 29 -30 14 -35 22 -37 56 -1 28 2 42 12 46 17 6 20 26 4 26 -5 0 -7 -4 -4
-10 3 -5 1 -10 -4 -10 -6 0 -11 7 -11 15 0 13 10 19 30 17 15 -1 6 40 -11 51
-23 14 -26 32 -3 23 8 -3 13 -2 9 3 -3 5 1 11 7 14 8 2 9 8 4 13 -5 5 -11 4
-13 -3 -6 -17 -23 -16 -23 1 0 8 7 16 15 20 17 6 20 26 4 26 -5 0 -7 -4 -4
-10 3 -5 1 -10 -4 -10 -6 0 -11 7 -11 15 0 14 12 20 33 16 4 -1 4 7 -1 16 -5
10 -8 26 -7 35 2 11 -2 15 -11 11 -8 -3 -14 -1 -14 5 0 5 6 12 13 14 18 7 38
-2 31 -14 -5 -7 -2 -8 6 -3 10 6 9 11 -5 22 -21 14 -33 59 -13 47 8 -5 8 -3 2
7 -5 8 -9 23 -9 34 0 13 -6 19 -19 18 -13 -1 -15 2 -7 10 8 8 20 4 43 -13 l33
-23 -20 23 c-15 18 -16 22 -4 18 9 -4 16 -1 16 6 0 7 -6 13 -14 13 -7 0 -13
-4 -13 -9 0 -4 -5 -8 -11 -8 -5 0 -8 4 -4 9 3 5 0 13 -6 17 -8 4 -9 3 -5 -4 4
-7 2 -12 -3 -12 -18 0 -12 19 9 30 16 9 18 8 14 -5 -5 -13 -2 -14 21 -5 40 15
73 12 84 -9 6 -10 7 -22 3 -26 -4 -5 -1 -5 6 -1 9 5 9 12 1 27 -6 12 -8 23 -6
26 3 2 10 -5 17 -16 6 -12 16 -21 23 -21 7 0 8 3 2 8 -5 4 -11 14 -13 22 -3
11 2 10 17 -4 12 -11 21 -15 21 -11 0 5 7 0 16 -11 15 -18 15 -18 5 3 -18 36
-12 40 15 8 19 -23 23 -25 14 -7 -11 23 -11 23 42 20 29 -1 59 1 66 5 8 5 12
3 12 -7 0 -9 -4 -16 -10 -16 -5 0 -10 -4 -10 -8 0 -5 7 -9 15 -9 8 0 12 3 10
6 -2 4 4 15 12 26 13 16 15 17 10 3 -4 -10 -4 -18 0 -18 3 0 12 8 20 18 13 16
14 15 9 -8 l-5 -25 21 25 c21 24 21 24 15 2 -3 -13 -1 -20 4 -16 6 3 16 1 23
-5 11 -9 14 -8 12 5 0 11 9 20 27 25 24 6 26 5 16 -7 -14 -17 2 -19 19 -2 16
16 16 -4 0 -22 -7 -8 -3 -6 9 4 13 10 20 24 17 30 -3 6 4 0 17 -14 l22 -25 -7
25 c-6 21 -5 23 6 10 7 -8 22 -22 32 -30 19 -15 19 -14 3 10 -16 24 -16 26 3
26 10 0 16 -4 14 -8 -6 -9 20 -38 32 -38 5 0 3 5 -4 12 -7 7 -12 19 -12 27 0
11 9 6 26 -14 19 -23 23 -25 14 -7 -11 23 -11 23 42 20 29 -1 59 1 66 5 8 5
12 3 12 -7 0 -9 -4 -16 -10 -16 -5 0 -10 -4 -10 -8 0 -5 7 -9 15 -9 8 0 12 3
10 6 -2 4 3 14 10 24 7 10 16 14 19 9 3 -5 18 -7 33 -5 21 3 24 2 13 -6 -8 -5
-17 -8 -20 -6 -4 2 -7 -2 -7 -9 0 -7 6 -13 14 -13 7 0 11 2 9 4 -2 3 3 12 12
21 13 13 29 16 71 12 49 -5 55 -8 62 -33 4 -16 3 -27 -2 -27 -6 0 -7 -5 -3
-12 10 -15 11 -390 2 -426 -5 -17 -19 -34 -35 -41 -52 -23 -102 -63 -125 -100
-17 -29 -22 -51 -22 -111 0 -84 6 -140 15 -134 3 2 16 -8 27 -21 24 -28 28
-40 10 -29 -7 4 -8 3 -4 -4 4 -6 13 -9 21 -5 8 3 15 1 15 -4 0 -11 93 -56 115
-56 9 0 14 -6 11 -12 -3 -8 4 -10 20 -7 13 2 24 9 24 14 0 5 4 7 8 4 5 -3 25
4 45 14 21 11 37 17 37 13 0 -5 7 1 15 11 8 11 15 16 15 12 0 -5 10 4 22 20
12 16 28 33 35 37 8 5 11 13 7 18 -3 6 9 3 27 -6 22 -10 28 -11 17 -2 -14 11
-15 16 -5 26 7 7 12 33 12 59 0 37 3 46 15 44 8 -2 11 0 7 5 -5 4 -13 9 -18 9
-5 1 -13 2 -18 3 -5 0 -8 13 -5 27 3 18 1 23 -7 18 -7 -4 -10 -2 -7 7 3 8 15
13 27 13 12 -1 19 1 16 5 -4 3 -15 7 -26 7 -32 2 -35 4 -19 14 13 8 12 10 -2
10 -10 0 -18 4 -18 8 0 13 -36 52 -48 52 -6 0 -18 10 -27 23 -8 12 -18 21 -20
20 -15 -8 -34 -1 -40 14 -13 32 -17 115 -5 108 6 -4 9 -13 7 -19 -3 -7 -1 -19
3 -27 5 -7 5 -18 0 -24 -5 -6 -2 -18 6 -29 8 -11 14 -15 14 -10 0 6 -5 15 -12
22 -9 9 -7 13 5 18 15 5 15 8 1 21 -13 14 -13 17 3 29 11 9 13 13 4 12 -7 -2
-16 3 -19 11 -2 8 0 11 5 8 5 -3 15 4 22 15 12 20 12 20 -10 4 -29 -20 -36
-20 -36 -1 0 10 6 14 16 10 13 -4 13 -3 -1 8 -10 8 -16 26 -16 45 1 26 4 30
15 20 11 -9 11 -13 1 -19 -10 -7 -9 -12 4 -26 13 -12 21 -14 29 -6 8 8 7 13
-2 18 -8 5 -10 4 -5 -3 8 -13 -6 -17 -17 -5 -10 10 14 34 27 26 6 -3 7 -2 3 3
-5 5 -14 9 -20 9 -5 0 -12 6 -15 14 -3 8 0 11 7 7 6 -4 11 -2 11 4 0 6 -8 9
-18 6 -13 -4 -19 -1 -19 9 0 10 6 14 16 10 13 -4 13 -3 -1 8 -10 8 -16 26 -16
45 1 26 4 30 15 20 11 -9 11 -13 2 -19 -10 -6 -10 -11 1 -24 16 -19 32 -15 36
8 1 9 -2 15 -7 11 -5 -3 -7 -10 -4 -15 4 -5 2 -9 -3 -9 -17 0 -22 13 -10 27 9
11 9 17 -3 24 -11 7 -10 13 11 29 14 11 18 18 10 15 -31 -10 -48 18 -46 75 2
33 7 56 14 56 7 1 13 2 15 4 7 5 36 7 33 2 -2 -4 3 -13 11 -21 13 -12 14 -11
9 10 -7 23 -6 23 8 6 8 -11 13 -28 11 -38 -2 -11 0 -17 6 -14 5 4 6 11 3 17
-5 8 -1 9 12 5 18 -7 18 -6 2 7 -10 7 -18 19 -18 27 0 11 2 11 10 -1 9 -13 11
-13 21 0 9 13 10 13 6 0 -4 -15 15 -40 29 -40 5 0 3 5 -4 12 -24 24 -12 33 42
33 30 0 52 -3 49 -8 -2 -4 -8 -5 -13 -2 -5 3 -11 1 -15 -4 -3 -6 -11 -9 -18
-7 -7 1 -9 1 -4 -1 4 -3 4 -10 0 -16 -4 -7 1 -5 11 3 10 8 25 15 34 16 8 2 18
7 21 12 6 9 117 9 126 0 3 -3 -1 -8 -10 -12 -9 -3 -14 -2 -11 2 11 18 -25 7
-41 -12 -18 -21 -18 -21 5 -2 19 17 26 15 24 -5 -1 -3 6 -6 14 -6 8 0 12 2 10
4 -2 3 4 13 15 24 19 19 35 26 26 11 -3 -4 24 -5 60 -4 52 3 64 1 58 -10 -6
-10 -5 -11 6 -1 17 16 53 17 43 1 -5 -7 -3 -8 7 -2 8 5 25 10 37 12 17 2 22
-1 16 -10 -6 -11 -5 -11 8 0 11 9 18 10 23 2 3 -5 15 -10 26 -10 11 0 17 -4
14 -10 -3 -5 3 -10 15 -10 12 0 18 -4 15 -10 -3 -5 2 -10 11 -10 10 0 15 -3
11 -6 -3 -3 3 -15 14 -27 17 -19 18 -22 3 -39 -9 -9 -20 -16 -24 -13 -11 7
-78 -46 -101 -80 -47 -70 -58 -134 -35 -206 9 -27 14 -55 10 -61 -4 -6 -3 -8
3 -5 6 4 20 -6 31 -21 38 -49 54 -67 47 -55 -4 9 -1 11 9 7 9 -3 16 -12 16
-19 0 -8 8 -12 20 -10 13 3 20 -2 21 -13 0 -11 2 -12 6 -4 2 6 10 9 16 5 7 -4
19 -8 27 -8 8 0 16 -8 18 -19 3 -13 0 -16 -9 -11 -8 5 -10 4 -5 -4 10 -16 26
-4 26 19 0 11 7 19 18 19 16 0 54 7 60 11 1 2 7 3 13 4 6 0 17 10 25 20 8 11
14 16 14 10 0 -5 12 -14 26 -21 21 -10 23 -9 15 1 -6 7 -8 16 -4 20 4 4 0 4
-10 0 -10 -3 -17 -1 -17 5 0 6 3 10 8 9 4 -2 8 2 10 7 2 6 11 18 19 28 13 13
18 15 25 5 4 -7 8 -17 8 -23 0 -5 -4 -3 -10 5 -14 23 -18 8 -5 -18 l13 -23 6
25 c4 18 11 24 24 20 14 -5 14 -4 2 4 -8 6 -17 9 -21 6 -12 -7 -16 29 -5 54 8
20 28 32 25 15 -3 -20 2 -33 12 -33 8 0 7 6 -2 17 -12 15 -12 16 6 10 l20 -7
-20 15 c-18 15 -31 80 -14 69 4 -2 10 0 14 6 3 5 2 10 -2 10 -5 0 -14 19 -20
42 -9 32 -9 45 0 50 8 5 6 8 -6 8 -10 0 -21 8 -24 18 -4 9 -15 24 -25 33 -10
9 -15 19 -13 23 3 3 2 4 -1 1 -12 -8 -45 16 -38 27 4 6 3 8 -3 5 -11 -7 -69
52 -65 66 1 4 -1 6 -6 3 -5 -3 -24 14 -42 37 -67 82 -105 115 -150 128 -52 15
-184 18 -808 19 -340 0 -451 3 -446 12 5 7 3 8 -7 3 -7 -5 -23 -10 -36 -11
-18 -2 -23 2 -23 22 0 13 4 24 10 24 5 0 7 -8 4 -17 -3 -10 2 -7 10 7 18 30
20 40 5 40 -5 0 -7 -4 -4 -10 3 -5 -1 -10 -9 -10 -22 0 -20 16 6 42 13 13 17
23 10 26 -6 2 -8 10 -5 18 3 8 0 14 -7 14 -6 0 -8 -4 -5 -10 3 -5 1 -10 -4
-10 -6 0 -11 7 -11 15 0 13 12 19 32 16 4 0 5 6 2 14 -4 8 -10 15 -16 15 -5 0
-6 -5 -3 -10 3 -5 1 -10 -4 -10 -6 0 -11 7 -11 15 0 14 12 20 33 16 4 -1 3 8
-3 20 -10 17 -8 21 10 26 16 4 18 8 8 14 -16 11 -29 11 -26 2 2 -5 -1 -9 -6
-11 -6 -1 -11 11 -12 27 -2 25 1 28 26 27 16 0 26 -4 24 -8 -2 -4 -13 -5 -24
-3 -12 2 -18 0 -16 -4 3 -4 23 -6 46 -5 22 1 40 -2 40 -7 0 -5 5 -9 11 -9 8 0
8 5 -1 15 -7 8 -16 13 -20 10 -5 -3 -11 -1 -14 4 -3 5 10 9 29 9 19 0 35 -3
35 -7 0 -3 10 -12 23 -20 22 -14 22 -14 3 8 -17 19 -17 21 -3 21 10 0 17 -3
17 -8 0 -4 10 -13 23 -21 22 -14 22 -14 3 8 -17 19 -17 21 -3 21 10 0 17 -3
17 -8 0 -4 10 -13 23 -21 22 -14 22 -14 3 8 -17 19 -17 21 -3 21 10 0 17 -4
17 -8 0 -5 11 -14 25 -20 20 -9 23 -9 19 3 -3 8 -11 13 -16 12 -6 -1 -12 4
-13 11 -2 7 -1 9 1 4 2 -5 19 -6 36 -4 21 3 29 1 24 -7 -4 -6 -2 -11 3 -11 6
0 11 5 11 10 0 6 12 10 26 10 14 0 23 -4 19 -10 -3 -5 -1 -10 4 -10 6 0 11 4
11 9 0 5 25 10 55 10 32 0 53 -4 50 -10 -4 -5 -1 -9 4 -9 6 0 11 4 11 9 0 5
25 10 55 10 32 0 53 -4 50 -10 -4 -5 -1 -9 4 -9 6 0 11 4 11 9 0 5 25 10 55
10 32 0 53 -4 50 -10 -4 -5 -1 -9 4 -9 6 0 11 4 11 10 0 5 18 9 40 8 22 -1 40
-6 40 -12 0 -8 2 -8 8 0 10 15 40 25 47 14 3 -5 12 -7 20 -3 8 3 15 1 15 -4 0
-4 10 -14 23 -22 22 -14 22 -14 3 8 -11 11 -16 24 -13 28 4 3 7 2 7 -3 0 -5
30 -8 67 -7 38 1 68 2 68 3 0 1 18 4 40 5 55 5 85 11 118 24 15 6 27 8 27 4 0
-3 8 1 18 10 10 10 22 14 25 10 4 -3 7 -1 7 4 0 6 8 10 17 9 10 -2 26 8 36 21
10 13 22 21 26 18 5 -2 17 6 29 18 11 12 43 44 71 70 28 27 51 54 51 59 0 6 9
8 20 5 11 -3 23 -1 26 5 4 6 10 5 16 -3 6 -10 7 -7 3 10 -6 18 -4 22 6 15 12
-6 12 -5 0 9 -7 9 -19 17 -25 17 -6 0 -4 -5 4 -10 11 -7 11 -10 2 -10 -7 0
-10 -5 -6 -12 5 -7 3 -8 -6 -3 -9 6 -11 4 -5 -6 7 -12 6 -12 -6 0 -11 10 -11
15 -1 18 6 3 10 9 6 14 -9 16 25 22 43 8 10 -8 14 -9 10 -2 -4 6 -2 13 5 16 7
2 5 3 -4 2 -10 -2 -18 1 -18 7 0 5 -6 6 -12 2 -9 -5 -9 -2 1 9 7 9 10 17 6 17
-4 0 -2 6 4 14 6 8 24 12 42 10 18 -2 28 0 24 6 -4 6 -12 10 -18 9 -7 -1 -19
-1 -27 0 -12 1 -12 4 3 12 9 5 17 15 17 22 0 7 -4 6 -10 -3 -5 -8 -10 -10 -10
-4 0 5 5 15 12 22 6 6 12 23 12 38 1 15 8 29 16 32 13 3 12 2 0 -7 -13 -9 -13
-11 1 -11 18 0 32 24 21 35 -4 4 -8 15 -8 26 -1 10 -2 20 -4 22 -1 1 -4 15 -6
30 -4 22 -2 27 8 21 10 -6 10 -4 0 9 -8 9 -11 21 -7 27 4 6 1 18 -7 27 -9 12
-9 15 0 9 6 -4 12 -2 12 3 0 6 -4 11 -10 11 -5 0 -10 8 -10 18 0 13 2 14 9 4
6 -11 10 -10 15 4 3 9 4 19 1 22 -3 3 -5 0 -5 -6 0 -6 -6 -9 -14 -6 -15 6 -16
28 -1 41 4 4 5 3 2 -3 -3 -6 0 -11 8 -11 11 0 12 4 4 13 -6 7 -8 19 -4 26 4 7
-1 4 -9 -6 -9 -11 -19 -17 -22 -13 -4 4 -1 14 7 24 12 15 12 16 -3 10 -20 -7
-25 9 -5 16 7 3 4 6 -6 6 -10 1 -16 5 -13 10 4 5 3 11 -1 13 -17 7 -41 66 -31
76 6 6 5 12 -3 17 -8 5 -10 4 -5 -3 4 -7 3 -12 -3 -12 -11 0 -57 71 -53 83 1
5 -2 6 -7 3 -5 -3 -29 17 -55 44 -25 27 -46 46 -46 43 0 -3 -8 1 -17 9 -10 9
-39 27 -65 40 -26 14 -45 28 -43 32 3 3 2 4 -1 2 -3 -3 -24 2 -47 10 -40 14
-79 23 -127 29 -13 1 -26 8 -28 14 -2 6 -7 9 -12 6 -7 -4 -7 32 1 65 2 8 15
23 29 33 l25 18 -30 -6 c-25 -5 -27 -4 -12 5 14 9 15 15 7 25 -6 7 -13 30 -15
51 -5 42 -12 79 -15 79 -1 0 -3 11 -4 25 -2 14 -8 38 -14 53 -7 16 -9 33 -6
39 4 6 3 8 -2 5 -6 -3 -19 16 -29 44 -11 27 -22 49 -25 49 -4 0 -17 19 -30 43
-13 23 -30 48 -37 55 -7 8 -10 18 -7 24 4 7 2 8 -4 4 -13 -8 -64 33 -56 46 3
5 0 7 -8 6 -7 -2 -12 3 -10 10 1 7 -3 12 -10 10 -7 -2 -27 7 -43 18 -45 33
-143 78 -210 98 -33 9 -72 24 -86 31 -14 8 -29 12 -32 9z m1220 -1561 c-4 -3
-2 -12 5 -20 8 -11 7 -12 -6 -7 -9 3 -16 9 -16 13 0 9 11 21 18 21 3 0 2 -3
-1 -7z m-1677 -644 c0 -14 -17 -10 -23 5 -4 10 -1 13 9 9 7 -3 14 -9 14 -14z
m0 -116 c0 -7 -4 -13 -9 -13 -5 0 -11 6 -14 13 -3 8 1 14 9 14 8 0 14 -6 14
-14z m-1377 -218 c-3 -9 -8 -14 -10 -11 -3 3 -2 9 2 15 9 16 15 13 8 -4z
m1257 5 c0 -5 -4 -10 -10 -10 -5 0 -10 5 -10 10 0 6 5 10 10 10 6 0 10 -4 10
-10z m-488 -82 c-7 -7 -12 -8 -12 -2 0 14 12 26 19 19 2 -3 -1 -11 -7 -17z m8
-22 c0 -3 -4 -8 -10 -11 -5 -3 -10 -1 -10 4 0 6 5 11 10 11 6 0 10 -2 10 -4z
m-3 -41 c0 -8 -4 -15 -9 -15 -4 0 -8 7 -8 15 0 8 4 15 8 15 5 0 9 -7 9 -15z
m1185 0 c0 -5 -5 -11 -10 -13 -5 -1 -9 4 -9 13 0 9 4 14 9 13 5 -2 10 -8 10
-13z m-1182 -59 c0 -2 -7 -6 -15 -10 -8 -3 -15 -1 -15 4 0 6 7 10 15 10 8 0
15 -2 15 -4z m0 -26 c0 -5 -5 -10 -11 -10 -5 0 -7 5 -4 10 3 6 8 10 11 10 2 0
4 -4 4 -10z m3 -144 c6 -14 0 -26 -13 -26 -3 0 -6 9 -7 20 -2 23 12 27 20 6z
m-803 -152 c0 -2 -11 -14 -24 -27 -16 -16 -29 -21 -38 -16 -10 7 -8 9 6 9 11
0 16 3 13 7 -10 9 10 30 28 30 8 0 15 -2 15 -3z m2160 -265 c0 -5 -4 -9 -10
-9 -5 0 -10 7 -10 16 0 8 5 12 10 9 6 -3 10 -10 10 -16z m0 -44 c0 -16 -25
-37 -33 -29 -3 4 -2 14 3 24 5 10 6 20 2 24 -3 4 1 4 11 0 9 -3 17 -12 17 -19z"/>
<path d="M2940 3333 c0 -6 8 -17 18 -24 16 -13 16 -13 2 6 -8 11 -16 22 -17
24 -2 2 -3 0 -3 -6z"/>
<path d="M3034 3174 c0 -18 4 -30 9 -27 5 3 6 12 3 20 -4 9 -2 21 4 28 7 8 6
12 -3 12 -8 0 -13 -13 -13 -33z"/>
<path d="M3052 3120 c0 -14 2 -19 5 -12 2 6 2 18 0 25 -3 6 -5 1 -5 -13z"/>
<path d="M3060 3080 c0 -5 5 -10 11 -10 5 0 7 5 4 10 -3 6 -8 10 -11 10 -2 0
-4 -4 -4 -10z"/>
<path d="M3050 3056 c0 -3 9 -10 20 -16 11 -6 20 -8 20 -6 0 3 -9 10 -20 16
-11 6 -20 8 -20 6z"/>
<path d="M3070 3010 c-8 -5 -10 -10 -5 -10 6 0 17 5 25 10 8 5 11 10 5 10 -5
0 -17 -5 -25 -10z"/>
<path d="M3075 2973 c3 -8 5 -17 5 -19 0 -2 4 -4 8 -4 4 0 8 8 8 18 0 10 -6
19 -14 19 -7 0 -10 -7 -7 -14z"/>
<path d="M3055 2849 c-4 -5 -1 -8 6 -7 6 2 14 -3 16 -10 3 -8 -1 -10 -14 -6
-14 6 -15 4 -6 -6 13 -14 33 -5 33 15 0 16 -27 28 -35 14z"/>
<path d="M3535 2541 c-3 -5 -2 -12 3 -15 5 -3 9 1 9 9 0 17 -3 19 -12 6z"/>
<path d="M3673 2283 c4 -3 1 -13 -6 -22 -11 -14 -10 -14 5 -2 16 12 16 31 1
31 -4 0 -3 -3 0 -7z"/>
<path d="M3655 2199 c-4 -6 -5 -12 -2 -15 2 -3 7 2 10 11 7 17 1 20 -8 4z"/>
<path d="M3653 2135 c0 -8 4 -12 9 -9 5 3 6 10 3 15 -9 13 -12 11 -12 -6z"/>
<path d="M3670 2100 c0 -5 5 -10 11 -10 5 0 7 5 4 10 -3 6 -8 10 -11 10 -2 0
-4 -4 -4 -10z"/>
<path d="M3635 2011 c4 -7 2 -18 -5 -26 -8 -9 -8 -15 0 -20 6 -3 7 -12 3 -18
-5 -9 -3 -9 8 0 8 6 18 11 22 11 5 0 11 3 14 5 3 3 -3 4 -14 3 -26 -5 -35 3
-20 18 6 8 15 12 20 9 4 -2 7 -2 7 1 0 3 -10 10 -21 17 -16 8 -20 8 -14 0z"/>
<path d="M3589 1909 c-7 -37 -7 -40 6 -29 10 8 14 7 18 -2 3 -8 6 -8 6 -2 1
10 -28 42 -30 33z"/>
<path d="M3511 1766 c-10 -12 -8 -17 11 -27 13 -6 19 -8 15 -3 -4 4 3 14 15
22 13 7 16 11 7 8 -9 -2 -21 0 -26 5 -6 6 -14 5 -22 -5z m19 -6 c0 -5 -5 -10
-11 -10 -5 0 -7 5 -4 10 3 6 8 10 11 10 2 0 4 -4 4 -10z"/>
<path d="M3477 1729 c-9 -6 -15 -14 -12 -20 4 -5 2 -9 -3 -9 -5 0 -29 -17 -52
-37 -24 -21 -47 -37 -51 -36 -5 2 -16 -8 -25 -22 -9 -14 -20 -22 -25 -19 -5 3
-9 1 -9 -5 0 -5 -9 -8 -20 -6 -12 2 -23 -2 -27 -11 -3 -8 -11 -13 -18 -10 -7
2 -16 2 -20 -2 -4 -4 -12 -7 -18 -7 -7 -1 -11 -6 -10 -13 3 -14 -6 -15 -27 -2
-9 5 -19 5 -27 -1 -7 -6 -18 -7 -25 -3 -7 4 -10 4 -6 -1 4 -4 3 -14 -3 -22
-17 -20 -1 -16 23 7 16 15 25 17 40 9 14 -7 23 -7 34 2 14 11 20 2 15 -24 -1
-5 3 -6 9 -2 7 4 7 12 0 25 -7 13 -7 21 0 25 5 3 10 1 10 -4 0 -18 18 -12 24
7 6 18 36 27 36 10 0 -4 5 -8 11 -8 5 0 7 5 4 10 -11 17 17 11 32 -7 8 -10 12
-12 8 -5 -4 7 -1 21 7 30 12 15 11 16 -4 3 -10 -7 -18 -10 -18 -5 0 12 20 41
20 30 0 -5 9 -1 20 9 11 10 20 13 20 7 0 -6 -4 -14 -10 -17 -5 -3 -10 -12 -10
-18 0 -7 4 -6 10 3 9 14 14 7 11 -13 -1 -5 3 -6 9 -2 8 5 8 11 1 19 -8 9 -7
18 3 31 12 17 16 18 32 5 11 -8 16 -10 12 -6 -4 5 0 14 9 21 13 9 13 14 3 20
-9 5 -11 4 -6 -3 4 -7 3 -12 -3 -12 -18 0 -21 18 -4 31 13 11 17 11 20 2 3 -7
9 -13 15 -13 7 0 6 5 -1 14 -8 10 -9 16 -1 21 5 3 10 1 10 -4 0 -6 5 -11 11
-11 8 0 8 4 -1 15 -6 8 -9 19 -5 25 8 12 5 12 -18 -1z m-41 -81 c4 -7 3 -8 -5
-4 -6 4 -20 2 -29 -6 -15 -12 -16 -11 -3 5 16 20 27 22 37 5z"/>
<path d="M3410 1620 c0 -5 5 -10 11 -10 5 0 7 5 4 10 -3 6 -8 10 -11 10 -2 0
-4 -4 -4 -10z"/>
<path d="M453 1605 c0 -7 6 -11 14 -8 7 3 13 6 13 8 0 2 -6 5 -13 8 -8 3 -14
-1 -14 -8z"/>
<path d="M525 1560 c-3 -6 1 -7 9 -4 18 7 21 14 7 14 -6 0 -13 -4 -16 -10z"/>
<path d="M555 1549 c-4 -6 -5 -12 -2 -15 2 -3 7 2 10 11 7 17 1 20 -8 4z"/>
<path d="M613 1529 c-2 -23 3 -25 10 -4 4 8 3 16 -1 19 -4 3 -9 -4 -9 -15z"/>
<path d="M3274 1542 c3 -5 1 -12 -6 -14 -8 -3 -9 -6 -1 -11 6 -4 13 0 17 8 3
8 0 17 -6 21 -6 4 -8 3 -4 -4z"/>
<path d="M910 1520 c-12 -7 -10 -9 7 -7 12 0 19 5 17 9 -6 10 -6 10 -24 -2z"/>
<path d="M1097 1523 c-3 -5 4 -15 16 -23 21 -12 21 -12 7 6 -8 10 -15 20 -16
22 -1 2 -4 -1 -7 -5z"/>
<path d="M2830 1520 c-12 -7 -10 -9 7 -7 12 0 19 5 17 9 -6 10 -6 10 -24 -2z"/>
<path d="M3045 1520 c-3 -5 -12 -7 -20 -3 -8 3 -15 3 -15 0 0 -13 30 -14 40
-1 7 8 10 14 7 14 -3 0 -8 -4 -12 -10z"/>
<path d="M3062 1509 c-14 -22 -7 -25 14 -5 8 8 11 17 6 20 -4 2 -13 -4 -20
-15z"/>
<path d="M816 1508 c3 -5 10 -6 15 -3 13 9 11 12 -6 12 -8 0 -12 -4 -9 -9z"/>
<path d="M855 1510 c-3 -5 -1 -10 4 -10 6 0 11 5 11 10 0 6 -2 10 -4 10 -3 0
-8 -4 -11 -10z"/>
<path d="M947 1507 c-3 -8 1 -14 8 -14 7 0 11 6 8 14 -3 7 -6 13 -8 13 -2 0
-5 -6 -8 -13z"/>
<path d="M1011 1517 c2 -1 13 -9 24 -17 19 -14 19 -14 6 3 -7 9 -18 17 -24 17
-6 0 -8 -1 -6 -3z"/>
<path d="M1051 1517 c2 -1 13 -9 24 -17 19 -14 19 -14 6 3 -7 9 -18 17 -24 17
-6 0 -8 -1 -6 -3z"/>
<path d="M1131 1517 c2 -1 13 -9 24 -17 19 -14 19 -14 6 3 -7 9 -18 17 -24 17
-6 0 -8 -1 -6 -3z"/>
<path d="M1171 1517 c2 -1 13 -9 24 -17 19 -14 19 -14 6 3 -7 9 -18 17 -24 17
-6 0 -8 -1 -6 -3z"/>
<path d="M1211 1517 c2 -1 13 -9 24 -17 19 -14 19 -14 6 3 -7 9 -18 17 -24 17
-6 0 -8 -1 -6 -3z"/>
<path d="M1251 1516 c2 -2 14 -9 26 -15 18 -9 22 -9 18 2 -3 7 -15 13 -26 14
-12 1 -20 1 -18 -1z"/>
<path d="M1427 1507 c-3 -8 1 -14 9 -14 16 0 19 13 5 21 -5 3 -11 0 -14 -7z"/>
<path d="M1548 1508 c-5 -11 -2 -15 10 -13 9 2 20 4 25 4 4 1 7 6 7 12 0 8 -4
8 -14 0 -11 -9 -15 -9 -18 1 -3 8 -6 7 -10 -4z"/>
<path d="M2387 1507 c-3 -8 1 -14 9 -14 16 0 19 13 5 21 -5 3 -11 0 -14 -7z"/>
<path d="M2508 1508 c-5 -11 -2 -15 10 -13 9 2 20 4 25 4 4 1 7 6 7 12 0 8 -4
8 -14 0 -11 -9 -15 -9 -18 1 -3 8 -6 7 -10 -4z"/>
<path d="M2627 1507 c-3 -8 1 -14 9 -14 16 0 19 13 5 21 -5 3 -11 0 -14 -7z"/>
<path d="M2747 1507 c-3 -8 1 -14 9 -14 16 0 19 13 5 21 -5 3 -11 0 -14 -7z"/>
<path d="M2867 1507 c-3 -8 1 -14 8 -14 7 0 11 6 8 14 -3 7 -6 13 -8 13 -2 0
-5 -6 -8 -13z"/>
<path d="M2931 1517 c2 -1 13 -9 24 -17 19 -14 19 -14 6 3 -7 9 -18 17 -24 17
-6 0 -8 -1 -6 -3z"/>
<path d="M2971 1517 c2 -1 13 -9 24 -17 19 -14 19 -14 6 3 -7 9 -18 17 -24 17
-6 0 -8 -1 -6 -3z"/>
<path d="M3135 1501 c-3 -6 3 -9 14 -8 11 0 17 5 15 9 -7 11 -22 10 -29 -1z"/>
<path d="M2016 1487 c3 -10 9 -15 12 -12 3 3 0 11 -7 18 -10 9 -11 8 -5 -6z"/>
<path d="M1995 1369 c-4 -6 -5 -12 -2 -15 2 -3 7 2 10 11 7 17 1 20 -8 4z"/>
<path d="M3390 1116 c0 -2 8 -10 18 -17 15 -13 16 -12 3 4 -13 16 -21 21 -21
13z"/>
<path d="M2570 1100 c0 -7 -6 -10 -14 -7 -9 4 -13 0 -12 -11 2 -9 9 -17 17
-17 8 0 13 6 12 13 -4 19 15 14 20 -5 4 -15 5 -15 6 -2 0 9 -6 22 -14 29 -12
10 -15 10 -15 0z"/>
<path d="M2820 1098 c0 -4 9 -7 20 -5 29 5 33 13 5 13 -14 0 -25 -4 -25 -8z"/>
<path d="M670 1091 c0 -6 4 -13 10 -16 6 -3 7 1 4 9 -7 18 -14 21 -14 7z"/>
<path d="M790 1094 c0 -1 8 -8 17 -15 9 -8 14 -9 10 -2 -4 6 -1 13 5 16 7 3 3
4 -9 4 -13 -1 -23 -2 -23 -3z"/>
<path d="M897 1083 c3 -7 6 -13 8 -13 2 0 5 6 8 13 3 8 -1 14 -8 14 -7 0 -11
-6 -8 -14z"/>
<path d="M975 1090 c3 -5 8 -10 11 -10 2 0 4 5 4 10 0 6 -5 10 -11 10 -5 0 -7
-4 -4 -10z"/>
<path d="M1026 1088 c3 -5 10 -6 15 -3 13 9 11 12 -6 12 -8 0 -12 -4 -9 -9z"/>
<path d="M1056 1085 c-3 -8 -1 -15 4 -15 6 0 10 7 10 15 0 8 -2 15 -4 15 -2 0
-6 -7 -10 -15z"/>
<path d="M1100 1096 c0 -2 8 -10 18 -17 15 -13 16 -12 3 4 -13 16 -21 21 -21
13z"/>
<path d="M1136 1087 c3 -10 9 -15 12 -12 3 3 0 11 -7 18 -10 9 -11 8 -5 -6z"/>
<path d="M1433 1075 c0 -14 3 -25 8 -25 4 0 6 10 4 21 -6 32 -12 34 -12 4z"/>
<path d="M1458 1093 c6 -2 9 -10 6 -15 -4 -7 -2 -8 5 -4 13 9 5 26 -12 25 -9
0 -8 -2 1 -6z"/>
<path d="M1630 1091 c0 -6 4 -13 10 -16 6 -3 7 1 4 9 -7 18 -14 21 -14 7z"/>
<path d="M2110 1091 c0 -6 4 -13 10 -16 6 -3 7 1 4 9 -7 18 -14 21 -14 7z"/>
<path d="M2351 1084 c0 -11 3 -14 6 -6 3 7 2 16 -1 19 -3 4 -6 -2 -5 -13z"/>
<path d="M2990 1086 c0 -8 4 -17 9 -20 5 -4 7 3 4 14 -6 23 -13 26 -13 6z"/>
<path d="M3027 1087 c-3 -8 1 -14 8 -14 7 0 11 6 8 14 -3 7 -6 13 -8 13 -2 0
-5 -6 -8 -13z"/>
<path d="M3055 1090 c3 -5 8 -10 11 -10 2 0 4 5 4 10 0 6 -5 10 -11 10 -5 0
-7 -4 -4 -10z"/>
<path d="M3100 1096 c0 -2 8 -10 18 -17 15 -13 16 -12 3 4 -13 16 -21 21 -21
13z"/>
<path d="M870 1080 c0 -5 5 -10 11 -10 5 0 7 5 4 10 -3 6 -8 10 -11 10 -2 0
-4 -4 -4 -10z"/>
<path d="M1950 1075 c0 -8 4 -15 10 -15 5 0 7 7 4 15 -4 8 -8 15 -10 15 -2 0
-4 -7 -4 -15z"/>
<path d="M2796 1082 c-3 -5 1 -9 9 -9 8 0 12 4 9 9 -3 4 -7 8 -9 8 -2 0 -6 -4
-9 -8z"/>
<path d="M3150 1076 c0 -8 4 -17 9 -20 5 -4 7 3 4 14 -6 23 -13 26 -13 6z"/>
<path d="M3223 1079 c9 -6 15 -14 12 -20 -4 -5 -1 -9 4 -9 6 0 11 4 11 8 0 12
-22 32 -34 32 -6 0 -3 -5 7 -11z"/>
<path d="M1193 1065 c0 -7 6 -11 14 -8 7 3 13 6 13 8 0 2 -6 5 -13 8 -8 3 -14
-1 -14 -8z"/>
<path d="M1553 1065 c0 -8 4 -12 9 -9 5 3 6 10 3 15 -9 13 -12 11 -12 -6z"/>
<path d="M1993 1065 c0 -8 4 -12 9 -9 5 3 6 10 3 15 -9 13 -12 11 -12 -6z"/>
<path d="M2375 1071 c-3 -5 0 -13 6 -17 7 -4 9 -3 5 4 -3 6 2 13 11 15 16 4
16 5 1 6 -9 0 -19 -3 -23 -8z"/>
<path d="M1796 1058 c3 -5 10 -6 15 -3 13 9 11 12 -6 12 -8 0 -12 -4 -9 -9z"/>
<path d="M2556 1039 c2 -4 -2 -9 -8 -12 -10 -3 -10 -7 1 -20 7 -10 18 -17 24
-17 6 0 3 6 -8 13 -17 13 -17 15 5 30 22 15 22 16 2 14 -11 0 -19 -4 -16 -8z"/>
<path d="M2576 1022 c-3 -5 1 -9 9 -9 8 0 12 4 9 9 -3 4 -7 8 -9 8 -2 0 -6 -4
-9 -8z"/>
<path d="M1390 900 c0 -5 5 -10 11 -10 5 0 7 5 4 10 -3 6 -8 10 -11 10 -2 0
-4 -4 -4 -10z"/>
<path d="M1393 844 c-3 -8 -2 -19 3 -24 5 -5 9 1 9 16 0 28 -3 30 -12 8z"/>
<path d="M3673 805 c0 -8 4 -12 9 -9 5 3 6 10 3 15 -9 13 -12 11 -12 -6z"/>
<path d="M600 805 c0 -5 5 -17 10 -25 5 -8 10 -10 10 -5 0 6 -5 17 -10 25 -5
8 -10 11 -10 5z"/>
<path d="M1397 783 c-10 -9 -9 -33 1 -33 4 0 8 9 8 20 0 23 0 22 -9 13z"/>
<path d="M3672 771 c-11 -7 -11 -9 0 -14 9 -3 15 1 15 9 0 8 -1 14 -1 14 -1 0
-7 -4 -14 -9z"/>
<path d="M607 720 c-3 -11 -3 -20 -1 -20 2 0 8 9 14 20 6 11 7 20 2 20 -6 0
-12 -9 -15 -20z"/>
<path d="M624 703 c-13 -20 -13 -25 -2 -16 8 7 17 11 19 8 3 -2 5 5 5 15 0 25
0 25 -22 -7z"/>
<path d="M3670 718 c0 -5 -4 -7 -8 -4 -5 3 -9 -1 -9 -9 0 -18 24 -28 33 -13 4
7 3 8 -4 4 -7 -4 -12 -2 -12 3 0 6 7 11 15 11 8 0 15 4 15 8 0 5 -7 9 -15 9
-8 0 -15 -4 -15 -9z"/>
<path d="M1393 684 c-3 -8 -2 -19 3 -24 5 -5 9 1 9 16 0 28 -3 30 -12 8z"/>
<path d="M600 660 c20 -13 33 -13 25 0 -3 6 -14 10 -23 10 -15 0 -15 -2 -2
-10z"/>
<path d="M2575 660 c-3 -5 -1 -10 4 -10 6 0 11 5 11 10 0 6 -2 10 -4 10 -3 0
-8 -4 -11 -10z"/>
<path d="M1369 648 c-4 -10 -5 -67 -1 -63 3 3 15 -3 26 -12 18 -15 18 -14 -1
8 -25 28 -30 45 -10 33 7 -5 6 0 -3 11 -14 17 -13 17 10 11 19 -6 21 -5 10 3
-14 10 -29 14 -31 9z"/>
<path d="M3626 635 c-6 -16 19 -33 31 -21 4 3 -1 6 -10 6 -10 0 -14 5 -11 15
4 8 4 15 1 15 -3 0 -8 -7 -11 -15z"/>
<path d="M2593 605 c0 -8 4 -12 9 -9 5 3 6 10 3 15 -9 13 -12 11 -12 -6z"/>
<path d="M3585 559 c3 -12 12 -30 21 -38 15 -15 15 -14 1 9 -9 14 -16 29 -16
33 1 5 -2 11 -5 14 -3 3 -3 -5 -1 -18z"/>
<path d="M3630 539 c0 -5 5 -7 10 -4 6 3 10 8 10 11 0 2 -4 4 -10 4 -5 0 -10
-5 -10 -11z"/>
<path d="M3519 513 c-8 -10 -9 -14 -2 -10 7 4 14 -1 18 -14 6 -19 9 -20 16 -6
6 9 17 14 27 11 14 -5 14 -4 2 4 -10 8 -19 7 -29 -1 -12 -10 -14 -9 -8 5 9 24
-8 31 -24 11z"/>
<path d="M242 504 c10 -10 20 -16 22 -13 3 3 -5 11 -17 18 -21 13 -21 12 -5
-5z"/>
<path d="M510 501 c5 -11 15 -23 21 -27 6 -3 3 5 -6 20 -20 30 -30 35 -15 7z"/>
<path d="M3486 501 c-4 -6 -11 -9 -16 -6 -4 3 -13 -2 -20 -11 -11 -12 -15 -12
-21 -2 -5 8 -8 5 -6 -9 l1 -23 23 22 c23 22 33 12 11 -10 -9 -9 -9 -12 -1 -12
7 0 15 9 18 20 3 11 11 20 16 20 6 0 7 -4 4 -10 -3 -5 -1 -10 4 -10 13 0 14
10 2 29 -6 9 -11 10 -15 2z"/>
<path d="M3345 479 c-3 -4 2 -6 10 -5 21 3 28 13 10 13 -9 0 -18 -4 -20 -8z"/>
<path d="M415 459 c-4 -6 -5 -12 -2 -15 2 -3 7 2 10 11 7 17 1 20 -8 4z"/>
<path d="M1550 340 c0 -5 5 -10 11 -10 5 0 7 5 4 10 -3 6 -8 10 -11 10 -2 0
-4 -4 -4 -10z"/>
<path d="M1527 289 c3 -11 0 -19 -6 -19 -7 0 -10 -4 -7 -9 3 -5 -1 -14 -9 -21
-9 -7 -13 -20 -10 -29 2 -9 0 -23 -5 -31 -5 -8 -10 -11 -10 -6 0 5 -10 0 -22
-12 -13 -11 -26 -21 -30 -21 -5 -1 -8 -3 -8 -6 0 -3 0 -9 0 -15 0 -5 5 -10 11
-10 5 0 7 5 4 10 -3 6 -2 10 4 10 5 0 11 -5 13 -12 3 -7 7 -5 11 6 4 11 3 15
-4 10 -7 -4 -10 -1 -7 7 3 8 12 13 20 11 9 -1 18 5 22 13 3 9 10 13 16 10 7
-4 7 2 0 19 -7 19 -6 24 4 20 14 -6 30 22 21 37 -3 5 -1 17 4 28 8 14 7 20 -3
24 -10 4 -12 0 -9 -14z m-5 -61 c-7 -7 -12 -8 -12 -2 0 14 12 26 19 19 2 -3
-1 -11 -7 -17z"/>
<path d="M2750 300 c0 -5 5 -10 11 -10 5 0 7 5 4 10 -3 6 -8 10 -11 10 -2 0
-4 -4 -4 -10z"/>
<path d="M2740 239 c0 -5 5 -7 10 -4 6 3 10 8 10 11 0 2 -4 4 -10 4 -5 0 -10
-5 -10 -11z"/>
<path d="M2647 170 c-26 -28 -45 -55 -41 -61 4 -6 13 -4 25 7 11 10 19 12 19
6 0 -7 4 -12 8 -12 5 0 9 7 9 15 0 8 -4 12 -8 9 -4 -2 -10 0 -14 6 -6 10 7 14
33 11 6 -1 12 5 12 14 0 10 5 13 13 9 8 -6 8 -3 -1 9 -8 9 -11 21 -7 27 13 21
-2 8 -48 -40z m35 13 c-6 -2 -10 -8 -8 -12 3 -4 -1 -8 -9 -8 -11 0 -12 4 -4
14 6 7 17 13 23 12 7 0 6 -2 -2 -6z m-52 -58 c-7 -9 -15 -13 -19 -10 -3 3 1
10 9 15 21 14 24 12 10 -5z"/>
<path d="M2710 200 c0 -5 5 -10 11 -10 5 0 7 5 4 10 -3 6 -8 10 -11 10 -2 0
-4 -4 -4 -10z"/>
<path d="M1500 140 c-9 -6 -10 -10 -3 -10 6 0 15 5 18 10 8 12 4 12 -15 0z"/>
<path d="M2700 140 c-9 -6 -10 -10 -3 -10 6 0 15 5 18 10 8 12 4 12 -15 0z"/>
<path d="M2580 119 c0 -5 -6 -7 -12 -3 -9 5 -9 2 1 -9 7 -9 19 -17 25 -16 7 0
7 2 -1 5 -7 3 -9 12 -6 20 3 8 2 14 -1 14 -3 0 -6 -5 -6 -11z"/>
<path d="M1366 113 c-4 -5 -12 -8 -18 -8 -6 0 -12 -8 -14 -17 -3 -22 12 -24
20 -2 5 14 9 14 22 3 22 -18 41 -19 41 -3 0 9 -4 10 -11 5 -12 -10 -39 12 -29
23 4 3 4 6 1 6 -2 0 -8 -3 -12 -7z"/>
<path d="M1229 91 c6 -10 7 -22 3 -26 -4 -5 -1 -5 6 -1 9 5 9 12 2 27 -6 10
-13 19 -16 19 -2 0 0 -8 5 -19z"/>
<path d="M2506 84 c-11 -8 -15 -14 -9 -14 7 0 15 5 18 10 9 15 27 12 19 -2 -4
-7 -4 -10 1 -6 4 4 14 3 21 -3 9 -7 12 -6 10 7 -3 22 -36 27 -60 8z"/>
</g>
</svg>
