<svg enable-background="new 0 0 512 512" height="512" viewBox="0 0 512 512" width="512" xmlns="http://www.w3.org/2000/svg">
    <g class="hatch-icon__rabbit">
        <g class="hatch-icon__rabbit-head">
            <path d="m410.918.379c-23.083 2.906-42.641 18.623-57.571 36.466-23.673 28.292-38.952 63.521-43.431 100.138l32.746 25.33c.465-21.045 17.442-38.245 35.839-48.476 18.396-10.231 39.17-15.917 56.855-27.333 17.686-11.415 32.513-31.359 28.852-52.088-4.045-22.91-30.207-36.943-53.29-34.037z" fill="#c5bec6"></path>
            <path d="m437.547 42.091c-6.672-4.224-15.151-4.919-22.863-3.223s-14.77 5.588-21.313 10.009c-33.68 22.759-56.022 61.509-58.844 102.059l9.019 3.858c3.747-17.615 18.802-31.974 34.956-40.957 18.396-10.231 39.17-15.917 56.855-27.333 4.914-3.172 9.604-7.003 13.742-11.325 2.436-12.465-.999-26.405-11.552-33.088z" fill="#e6989e"></path>
            <path d="m101.082.379c23.083 2.906 42.641 18.623 57.571 36.466 23.673 28.292 38.952 63.521 43.431 100.138l-32.746 25.33c-.465-21.045-17.442-38.245-35.839-48.476-18.396-10.231-39.17-15.917-56.855-27.333s-32.513-31.359-28.852-52.088c4.045-22.91 30.207-36.943 53.29-34.037z" fill="#c5bec6"></path>
            <path d="m101.082.379c23.083 2.906 42.641 18.623 57.571 36.466 23.673 28.292 38.952 63.521 43.431 100.138l-32.746 25.33c-.465-21.045-17.442-38.245-35.839-48.476-18.396-10.231-39.17-15.917-56.855-27.333s-32.513-31.359-28.852-52.088c4.045-22.91 30.207-36.943 53.29-34.037z" fill="#c5bec6"></path>
            <path d="m202.084 136.983c-2.455-20.071-8.162-39.721-16.71-58.044-.574 1.71-1.217 3.397-1.95 5.049-2.93 6.605-7.463 12.724-13.762 16.266-7.258 4.08-16.114 4.345-24.311 2.883-8.197-1.461-16.013-4.51-24.032-6.748-11.507-3.213-23.479-4.71-35.424-4.526 15.423 8.109 32.331 13.48 47.605 21.975 18.396 10.231 35.374 27.431 35.839 48.476z" fill="#b5adb7"></path>
            <path d="m74.453 42.091c6.672-4.224 15.151-4.919 22.863-3.223s14.77 5.588 21.313 10.009c33.68 22.759 56.022 61.509 58.844 102.059l-9.019 3.858c-3.747-17.615-18.802-31.973-34.956-40.957-18.396-10.231-39.17-15.917-56.855-27.333-4.914-3.172-9.604-7.003-13.742-11.325-2.436-12.465.999-26.405 11.552-33.088z" fill="#e6989e"></path>
            <path d="m164.481 102.462c-6.077 1.893-12.799 1.803-19.13.675-8.197-1.461-16.013-4.51-24.032-6.748-11.507-3.213-23.479-4.71-35.424-4.526.946.497 2.922 1.496 2.957 1.513 9.898 4.94 20.313 8.93 30.451 13.462.053.024.105.048.158.071 4.662 2.087 9.603 4.461 14.03 6.923 8.472 4.711 16.814 11.032 23.239 18.495.018.021.036.041.054.062 5.523 6.431 9.892 14.048 11.671 22.405l9.019-3.858c-1.17-16.805-5.701-33.297-12.993-48.474z" fill="#e27f86"></path>
            <path d="m258.216 81.911c-70.18-.055-131.652 92.495-131.584 163.876.06 62.788 56.523 98.387 127.971 99.196s130.824-33.477 130.764-96.265c-.07-74.109-56.971-166.752-127.151-166.807z" fill="#c5bec6"></path>
            <path d="m258.216 81.911c-5.59-.004-11.123.584-16.576 1.697 60.54 13.017 107.275 96.853 107.313 165.027.032 57.21-47.851 90.769-108.844 95.686 4.753.381 9.587.607 14.494.663 71.448.809 130.824-33.477 130.764-96.265-.07-74.11-56.971-166.753-127.151-166.808z" fill="#b5adb7"></path>
            <g fill="#766d78">
                <path d="m206.238 175.732c-4.267 0-7.726-3.459-7.726-7.726v-3.407c0-4.267 3.459-7.726 7.726-7.726s7.726 3.459 7.726 7.726v3.407c0 4.267-3.459 7.726-7.726 7.726z"></path>
                <path d="m305.762 175.732c-4.267 0-7.726-3.459-7.726-7.726v-3.407c0-4.267 3.459-7.726 7.726-7.726s7.726 3.459 7.726 7.726v3.407c0 4.267-3.459 7.726-7.726 7.726z"></path>
            </g>
            <path d="m256 170.843c-9.553 0-17.298 2.661-17.298 10.138 0 7.478 7.744 18.074 17.298 18.074s17.298-10.597 17.298-18.074-7.745-10.138-17.298-10.138z" fill="#e6989e"></path>
            <path d="m242.02 237.606c-1.105 0-2.217-.08-3.305-.238-10.987-1.599-19.317-11.201-19.377-22.335-.023-4.267 3.418-7.745 7.685-7.768h.043c4.247 0 7.702 3.432 7.725 7.685.019 3.556 2.662 6.62 6.148 7.127.367.053.765.078 1.128.077 1.963-.01 3.793-.79 5.157-2.195 2.26-2.323 5.423-3.663 8.682-3.681h.064c3.237 0 6.387 1.304 8.652 3.583 1.383 1.395 3.194 2.18 5.182 2.144.382-.002.764-.032 1.131-.09 3.48-.545 6.091-3.636 6.072-7.192-.023-4.267 3.418-7.744 7.686-7.767h.042c4.248 0 7.703 3.432 7.725 7.685.059 11.135-8.168 20.825-19.136 22.541-1.125.176-2.28.269-3.433.276-5.113-.021-9.929-1.607-13.895-4.65-3.933 3.085-8.749 4.771-13.843 4.798-.044 0-.088 0-.133 0z" fill="#8c818f"></path>
        </g>
        <g class="hatch-icon__rabbit-paws">
            <g fill="#c5bec6">
                <path d="m400.359 277.053c-18.743 0-33.937 7.539-33.937 21.922s15.194 26.042 33.937 26.042 33.937-11.659 33.937-26.042c-.001-14.383-15.195-21.922-33.937-21.922z"></path>
                <path d="m111.641 277.053c-18.743 0-33.937 7.539-33.937 21.922s15.194 26.042 33.937 26.042 33.937-11.659 33.937-26.042-15.194-21.922-33.937-21.922z"></path>
            </g>
        </g>
    </g>
    <g class="hatch-icon__egg">
        <path d="m431.451 343.415c-1.192 98.767-81.078 169.747-178.546 168.57-97.469-1.177-175.618-74.06-174.426-172.826.138-11.248.827-22.167 2.023-32.742.762-6.735 8.967-9.59 13.694-4.733l13.004 13.358c4.83 4.965 12.814 4.965 17.643 0l29.053-29.868c4.845-4.966 12.814-4.966 17.643 0l29.069 29.868c4.83 4.965 12.814 4.965 17.643 0l29.053-29.868c4.832-4.968 12.811-4.968 17.643 0l29.053 29.868c4.845 4.965 12.814 4.965 17.643 0l29.053-29.868c4.845-4.966 12.814-4.966 17.643 0l29.053 29.868c4.83 4.965 12.814 4.965 17.643 0l11.261-11.573c4.762-4.894 13.063-1.962 13.711 4.835 1.084 11.331 1.585 23.041 1.444 35.111z" fill="#f7f3f1"></path>
        <path d="m430.011 308.304c-.648-6.797-8.949-9.729-13.711-4.835l-11.261 11.573c-3.79 3.896-9.517 4.721-14.143 2.502.538 8.428.776 17.051.677 25.872-1.072 92.129-68.124 160.07-153.358 167.833 4.842.424 9.739.678 14.689.738 97.469 1.177 177.354-69.804 178.546-168.57.142-12.072-.359-23.782-1.439-35.113z" fill="#ebe1dc"></path>
    </g>
</svg>
