<?xml version="1.0" encoding="UTF-8"?>
<svg id="Capa_1" data-name="Capa 1" xmlns="http://www.w3.org/2000/svg" viewBox="0 0 175.87 70.25">
  <defs>
    <style>
      .cls-1 {
        fill: #004c9e;
      }

      .cls-2 {
        fill: #009de2;
      }
    </style>
  </defs>
  <path class="cls-1" d="M.21,56.5c.6,2.9,2.48,4.99,5.38,6.06,5.2,1.92,13.71,.39,23.22-3.76l2.56-8.23c-6.68,3.56-16.96,8.1-21.22,4.91-5.05-3.78,.82-13.88,9.16-20.72,6.92-5.68,16.58-11.33,21.26-13.81l1.51-4.85c-1.89,.8-4.63,2.09-7.13,3.3C16.61,28.26-2.22,44.73,.21,56.5"/>
  <path class="cls-1" d="M11.38,51.44c.59,1.47,2.09,2.3,4.29,2.42,3.82,.21,9.77-1.82,16.33-5.32l1.47-4.74c-4.82,2.99-11.76,6.71-14.78,5.53-2.82-1.1-.36-7.47,5.48-12.48,4.71-4.04,11-8.34,14.77-10.64l.84-2.72c-1.46,.74-2.97,1.56-4.52,2.47-13.14,7.67-26.28,19.53-23.88,25.5"/>
  <path class="cls-1" d="M85.52,25.06c-4.03-9.04-23.17-9.15-43.89-1.93l-3.41,9.22c17.48-7.47,33.58-9.47,36.65-3.4,3.7,7.33-13.1,22.55-36.1,32.6-4.65,2.03-9.07,3.64-13.14,4.82l-1.44,3.88c5.69-.92,11.99-2.58,18.67-5.06,27.75-10.29,47.6-29.03,42.66-40.13"/>
  <path class="cls-2" d="M73.04,3.43c-3.35-5.61-15.9-4.17-29.43,3.11l-1.32,6.84c10.64-6.86,21.07-9.83,23.53-5.72,2.89,4.83-6.86,16.54-20.03,24.89-2.81,1.79-5.53,3.25-8.05,4.38l-.69,3.55c4.76-1.65,9.98-4.19,15.21-7.56,15.61-10.07,24.54-23.2,20.78-29.49"/>
  <path class="cls-1" d="M103.21,36.39l4.98-10.61s.7-1.91,2.52-1.91c1.96,0,2.38,2.21,2.38,2.21l2.35,10.32h-2.4s-.76-3.1-.76-3.1h-5.12s-1.49,3.09-1.49,3.09h-2.46Zm6.49-8.57l-1.65,3.56h3.81s-.88-3.56-.88-3.56c0,0-.15-.67-.6-.67s-.68,.67-.68,.67"/>
  <path class="cls-1" d="M97.14,63.55l3.82-7.01s.56-1.26,1.76-1.26c1.29,0,1.46,1.46,1.46,1.46l1.04,6.82h-1.59s-.35-2.05-.35-2.05h-3.39s-1.14,2.04-1.14,2.04h-1.62Zm4.72-5.66l-1.27,2.35h2.52s-.4-2.35-.4-2.35c0,0-.06-.44-.36-.44s-.48,.44-.48,.44"/>
  <path class="cls-1" d="M117.97,63.55l3.82-7.01s.55-1.26,1.76-1.26c1.29,0,1.46,1.46,1.46,1.46l1.04,6.82h-1.59s-.35-2.05-.35-2.05h-3.39s-1.14,2.04-1.14,2.04h-1.62Zm4.72-5.66l-1.27,2.35h2.52s-.4-2.35-.4-2.35c0,0-.06-.44-.36-.44s-.48,.44-.48,.44"/>
  <path class="cls-1" d="M162.87,63.55l3.82-7.01s.56-1.26,1.76-1.26c1.29,0,1.46,1.46,1.46,1.46l1.04,6.82h-1.59s-.35-2.05-.35-2.05h-3.39s-1.14,2.04-1.14,2.04h-1.62Zm4.71-5.66l-1.27,2.35h2.52s-.4-2.35-.4-2.35c0,0-.06-.44-.36-.44s-.48,.44-.48,.44"/>
  <path class="cls-1" d="M127.43,36.39l5.25-10.66s.75-1.92,2.57-1.92c1.96,0,2.33,2.23,2.33,2.23l2.11,10.36h-2.41s-.68-3.12-.68-3.12h-5.13s-1.57,3.11-1.57,3.11h-2.46Zm6.71-8.61l-1.74,3.58h3.82s-.79-3.57-.79-3.57c0,0-.13-.67-.58-.67s-.7,.67-.7,.67"/>
  <path class="cls-1" d="M148.58,36.39l5.25-10.66s.75-1.92,2.57-1.92c1.96,0,2.33,2.23,2.33,2.23l2.11,10.36h-2.4s-.69-3.12-.69-3.12h-5.13s-1.57,3.11-1.57,3.11h-2.46Zm6.72-8.61l-1.74,3.58h3.82s-.79-3.57-.79-3.57c0,0-.13-.67-.58-.67s-.7,.67-.7,.67"/>
  <path class="cls-1" d="M115.04,36.4l3.13-11.44s.24-1.07,1.1-1.08c1.03-.01,1.13,.8,1.13,.8l1.5,6.19s.05,.42,.32,.41c.24,0,.38-.33,.38-.33l3.12-6.21s.35-.87,1.21-.86c.94,0,.9,1.12,.9,1.12l-.4,11.39h-2.2s.2-5.61,.2-5.61c0,0,.06-.44-.23-.44-.22,0-.33,.33-.33,.33l-2.03,4.06s-.4,1.06-1.28,1.04c-.93-.02-1.11-1.09-1.11-1.09l-.93-3.86s-.06-.41-.34-.41c-.25,0-.34,.38-.34,.38l-1.56,5.6h-2.23Z"/>
  <path class="cls-1" d="M105.03,53.26l3.86-14.1s.29-1.31,1.36-1.32c1.27-.02,1.39,.99,1.39,.99l1.85,7.63s.06,.51,.39,.5c.29,0,.46-.4,.46-.4l3.84-7.65s.43-1.08,1.5-1.07c1.16,.01,1.11,1.38,1.11,1.38l-.5,14.04h-2.71s.25-6.92,.25-6.92c0,0,.07-.54-.29-.54-.27,0-.41,.41-.41,.41l-2.5,5s-.5,1.31-1.58,1.28c-1.15-.03-1.37-1.34-1.37-1.34l-1.15-4.76s-.07-.5-.41-.5c-.31,0-.42,.47-.42,.47l-1.91,6.91h-2.75Z"/>
  <path class="cls-1" d="M142.28,23.74h3.8c2.28,0,3.88,1.13,3.42,3.72-.26,1.5-1.36,2.72-2.84,3.17l2.67,5.74-2.82,.06-2.99-6.64h-.03s-1.01,6.57-1.01,6.57h-2.27s2.07-12.62,2.07-12.62Zm1.31,5.49h.83c1.12,0,2.27-.34,2.51-1.69,.25-1.39-.76-1.55-1.89-1.55h-.88s-.57,3.25-.57,3.25Z"/>
  <path class="cls-1" d="M100.12,37.91c4.16,0,6.99,3.43,6.24,7.69-.75,4.26-4.8,7.69-8.95,7.69-4.15,0-6.99-3.43-6.24-7.69,.75-4.26,4.79-7.69,8.95-7.69m-2.2,12.49c2.56,0,5.09-2.19,5.55-4.8,.46-2.61-1.29-4.79-3.86-4.79s-5.08,2.18-5.55,4.79c-.46,2.61,1.3,4.8,3.86,4.8"/>
  <polygon class="cls-1" points="120.82 53.25 123.47 37.83 131.66 37.83 131.2 40.63 125.76 40.63 125.25 43.65 129.61 43.65 129.13 46.44 124.77 46.44 124.07 50.45 130.17 50.45 129.66 53.25 120.82 53.25"/>
  <path class="cls-1" d="M133.38,37.83h4.62c2.77,0,4.71,1.37,4.16,4.52-.32,1.82-1.65,3.3-3.45,3.86l3.18,7.05-3.49,.03-3.49-8.11h-.04s-1.35,8.11-1.35,8.11h-2.8s2.68-15.46,2.68-15.46Zm1.6,6.66h1.01c1.37,0,2.76-.41,3.05-2.06,.3-1.69-.93-1.89-2.29-1.89h-1.07s-.69,3.94-.69,3.94Z"/>
  <polygon class="cls-1" points="153.45 53.29 156.36 37.75 159.24 37.75 156.53 53.26 153.45 53.29"/>
  <path class="cls-1" d="M168.21,37.91c4.16,0,6.99,3.43,6.24,7.69-.75,4.26-4.8,7.69-8.95,7.69-4.16,0-6.99-3.43-6.24-7.69,.75-4.26,4.79-7.69,8.95-7.69m-2.2,12.49c2.56,0,5.09-2.19,5.55-4.8,.46-2.61-1.3-4.79-3.86-4.79s-5.08,2.18-5.54,4.79c-.46,2.61,1.29,4.8,3.85,4.8"/>
  <path class="cls-1" d="M164.4,27.37h2.46c2,0,3.42,1.81,3.02,4.09-.49,2.78-2.87,4.21-4.79,4.21h-2.15s1.46-8.29,1.46-8.29Zm1.2,6.75c1.43,0,2.41-1.36,2.65-2.67,.25-1.41-.5-2.55-1.8-2.55h-.76s-.92,5.22-.92,5.22h.83Z"/>
  <polygon class="cls-1" points="169.77 35.66 171.23 27.37 175.87 27.37 175.59 28.91 172.52 28.91 172.23 30.56 174.69 30.56 174.42 32.1 171.96 32.1 171.6 34.12 175.04 34.12 174.74 35.66 169.77 35.66"/>
  <path class="cls-1" d="M75.97,55.25h2.46c2,0,3.42,1.81,3.02,4.09-.49,2.78-2.87,4.2-4.79,4.2h-2.15s1.46-8.29,1.46-8.29Zm1.2,6.75c1.43,0,2.42-1.35,2.65-2.67,.25-1.42-.5-2.55-1.8-2.55h-.76s-.92,5.22-.92,5.22h.83Z"/>
  <polygon class="cls-1" points="81.82 63.54 83.28 55.25 87.87 55.22 87.63 56.79 84.57 56.79 84.28 58.44 86.74 58.44 86.47 59.97 84.01 59.97 83.65 62 87.09 62 86.82 63.54 81.82 63.54"/>
  <path class="cls-1" d="M93.37,55.25h2.79c1.94,0,2.1,1.48,1.97,2.27-.14,.76-.66,1.39-1.39,1.7,.83,.31,1.32,1.03,1.15,2.03-.22,1.26-1.36,2.28-2.91,2.28h-3.07s1.46-8.29,1.46-8.29Zm.37,6.75h.82c1.07,0,1.5-.33,1.63-1.04,.12-.71-.2-1.04-1.26-1.04h-.82s-.37,2.08-.37,2.08Zm.59-3.36h.86c.62,0,1.11-.4,1.21-.93,.09-.53-.26-.93-.88-.93h-.87s-.33,1.86-.33,1.86Z"/>
  <path class="cls-1" d="M106.97,55.25h2.61c1.56,0,2.66,.77,2.34,2.55-.18,1.03-.93,1.86-1.95,2.17l1.75,3.59h-1.99s-1.91-4.17-1.91-4.17h-.02s-.73,4.15-.73,4.15h-1.57s1.46-8.29,1.46-8.29Zm.9,3.76h.57c.77,0,1.56-.23,1.72-1.16,.16-.95-.52-1.06-1.29-1.06h-.61s-.39,2.22-.39,2.22Z"/>
  <path class="cls-1" d="M113.55,55.25h2.6c1.56,0,2.66,.77,2.34,2.55-.18,1.03-.93,1.86-1.95,2.17l1.72,3.58h-1.95s-1.91-4.16-1.91-4.16h-.02s-.73,4.15-.73,4.15h-1.54s1.44-8.29,1.44-8.29Zm.9,3.76h.57c.77,0,1.55-.23,1.72-1.16,.17-.95-.52-1.06-1.29-1.06h-.6s-.39,2.22-.39,2.22Z"/>
  <path class="cls-1" d="M126.44,63.54l1.45-7.71s.11-.58,.51-.6c.42-.02,.73,.45,.73,.45l2.45,3.74s.18,.29,.32,.22c.15-.08,.17-.43,.17-.43l.75-3.96h1.74s-1.47,7.73-1.47,7.73l-.05,.24s-.06,.3-.39,.31c-.42,.02-.56-.32-.56-.32l-2.69-3.89s-.13-.25-.3-.24c-.2,.02-.23,.31-.23,.31l-.79,4.14h-1.63Z"/>
  <path class="cls-1" d="M141.73,64.35l-1-1.33c-.75,.44-1.61,.71-2.47,.71-2.34,0-3.94-1.93-3.52-4.34,.42-2.4,2.71-4.34,5.05-4.34s3.94,1.94,3.52,4.34c-.18,1.02-.7,1.95-1.39,2.67l1.16,1.53-1.35,.75Zm-1.31-4.29l.59,.77c.34-.4,.58-.9,.68-1.44,.26-1.47-.73-2.71-2.17-2.71s-2.87,1.23-3.13,2.71c-.26,1.48,.73,2.71,2.17,2.71,.44,0,.86-.11,1.25-.32l-.74-.98,1.35-.75Z"/>
  <path class="cls-1" d="M150.83,55.23l-.99,5.81c-.26,1.5-1.59,2.69-3.41,2.69-1.4,0-2.7-.81-2.33-2.92l.98-5.56,1.6-.02-.97,5.35c-.13,.72-.15,1.62,1.07,1.62,1.09,0,1.44-.76,1.61-1.75l.91-5.2,1.53-.02Z"/>
  <polygon class="cls-1" points="150.59 63.54 152.1 55.25 153.65 55.22 152.19 63.54 150.59 63.54"/>
  <polygon class="cls-1" points="153.4 63.54 154.86 55.25 156.42 55.22 155.23 62 158.19 62 157.97 63.54 153.4 63.54"/>
  <polygon class="cls-1" points="158.63 63.54 160.09 55.25 161.65 55.22 160.46 62 163.42 62 163.2 63.54 158.63 63.54"/>
  <path class="cls-1" d="M105.52,25.11c-.77-.9-1.69-1.28-2.4-1.43-.03,0-.07-.02-.11-.02-.06-.01-.12-.02-.18-.03,0,0,0,0,0,0-.47-.07-.79-.05-.84-.04-.04,0-.09,0-.13,0-3.53,.26-6.3,3.32-6.66,6.85-.36,3.57,1.79,6.22,5.44,5.94,.51-.04,1.35-.25,1.88-.55,.01,0,.02-.01,.03-.02,.02-.01,.05-.02,.07-.04h0c.21-.13,.53-.35,.69-.61l.47-2.85s-.25,.24-.55,.49h0c-.67,.56-1.46,1.11-2.41,1.18-1.98,.15-3.46-1.44-3.24-3.72,.2-2.07,1.85-4.1,3.93-4.26,.82-.06,1.48,.14,2.01,.48,.07,.05,.14,.1,.2,.14,.01,.01,.02,.02,.04,.03,.02,.01,.04,.03,.06,.04h0c.46,.32,.85,.71,.85,.71l.86-2.3Z"/>
  <path class="cls-1" d="M92.66,39.52c-.94-1.1-2.06-1.56-2.93-1.75-.04,0-.08-.02-.12-.03-.72-.14-1.24-.09-1.27-.09-.05,0-.11,0-.15,0-4.32,.32-7.71,4.06-8.14,8.37-.44,4.36,2.19,7.6,6.65,7.26,.66-.05,1.77-.33,2.42-.74h0c.26-.15,.65-.43,.84-.75l.57-3.49s-.31,.29-.67,.6h0c-.82,.68-1.79,1.36-2.95,1.45-2.42,.18-4.24-1.76-3.96-4.55,.26-2.53,2.26-5.01,4.81-5.2,1.01-.07,1.81,.17,2.46,.58,.09,.06,.17,.12,.25,.17,.02,.01,.04,.03,.06,.04,.02,.02,.04,.03,.06,.05h0c.55,.39,1.04,.87,1.04,.87l1.04-2.81Z"/>
  <path class="cls-1" d="M155.24,39.52c-.94-1.1-2.06-1.56-2.93-1.75-.04,0-.08-.02-.13-.03-.73-.14-1.24-.09-1.27-.09-.05,0-.11,0-.15,0-4.32,.32-7.71,4.06-8.14,8.37-.43,4.36,2.19,7.6,6.65,7.26,.65-.05,1.77-.33,2.41-.74h0c.25-.15,.65-.43,.84-.75l.57-3.49s-.31,.29-.67,.6h0c-.82,.68-1.79,1.36-2.95,1.45-2.42,.18-4.24-1.76-3.96-4.55,.25-2.53,2.26-5.01,4.81-5.2,1-.07,1.81,.17,2.45,.58,.09,.06,.17,.12,.25,.17,.02,.01,.04,.03,.06,.04,.02,.02,.04,.03,.06,.05h0c.56,.39,1.04,.87,1.04,.87l1.05-2.81Z"/>
  <path class="cls-1" d="M111.94,22.94l-.63-.02c-.65,.02-.4-.48-.4-.48l1.53-2.38c.06-.09,.16-.15,.27-.15h1.92c.29,0,.44,.35,.23,.56l-2.12,2.13c-.39,.39-.81,.33-.81,.33Z"/>
</svg>