<?xml version="1.0" encoding="utf-8"?>
<!-- Generator: Adobe Illustrator 23.0.4, SVG Export Plug-In . SVG Version: 6.00 Build 0)  -->
<svg version="1.1" id="Capa_1" xmlns="http://www.w3.org/2000/svg" xmlns:xlink="http://www.w3.org/1999/xlink" x="0px" y="0px"
	 viewBox="0 0 160.3 69.7" style="enable-background:new 0 0 160.3 69.7;" xml:space="preserve">
<style type="text/css">
	.Estilo_x0020_gráfico_x0020_21{fill:url(#SVGID_1_);}
	.Estilo_x0020_gráfico_x0020_34{fill:url(#SVGID_2_);}
	.st0{fill:#233B85;}
	.st1{fill:url(#SVGID_3_);}
	.st2{fill:url(#SVGID_4_);}
	.st3{fill:url(#SVGID_5_);}
</style>
<linearGradient id="SVGID_1_" gradientUnits="userSpaceOnUse" x1="49.2947" y1="49.3339" x2="49.6965" y2="50.2496">
	<stop  offset="0" style="stop-color:#6BBACB"/>
	<stop  offset="0.272" style="stop-color:#3C83B1"/>
	<stop  offset="0.4969" style="stop-color:#195A9D"/>
	<stop  offset="0.8221" style="stop-color:#233B85"/>
</linearGradient>
<linearGradient id="SVGID_2_" gradientUnits="userSpaceOnUse" x1="49.2947" y1="49.3339" x2="49.2755" y2="48.334">
	<stop  offset="7.361960e-02" style="stop-color:#4CA980"/>
	<stop  offset="0.1551" style="stop-color:#449C84"/>
	<stop  offset="0.3061" style="stop-color:#2E7990"/>
	<stop  offset="0.4294" style="stop-color:#19589B"/>
	<stop  offset="0.5361" style="stop-color:#1D4C92"/>
	<stop  offset="0.7136" style="stop-color:#213F88"/>
	<stop  offset="0.8773" style="stop-color:#233B85"/>
</linearGradient>
<g>
	<g>
		<g>
			<path class="st0" d="M65.9,36.7c-2,0-3.6-0.6-4.6-1.7c-1.1-1.1-1.6-2.7-1.6-4.8c0-1,0.2-2,0.5-2.8c0.3-0.8,0.8-1.5,1.3-2.1
				c0.6-0.6,1.2-1,2-1.3c0.8-0.3,1.6-0.4,2.5-0.4c0.5,0,1,0,1.4,0.1c0.4,0.1,0.8,0.2,1.1,0.3c0.3,0.1,0.6,0.2,0.8,0.3
				c0.2,0.1,0.4,0.2,0.5,0.3L69,26.9c-0.4-0.2-0.8-0.4-1.3-0.5c-0.5-0.1-1.1-0.2-1.7-0.2c-0.4,0-0.9,0.1-1.3,0.2
				c-0.4,0.1-0.8,0.4-1.1,0.7c-0.3,0.3-0.6,0.7-0.8,1.2c-0.2,0.5-0.3,1.1-0.3,1.8c0,0.6,0.1,1.1,0.2,1.6c0.1,0.5,0.3,0.9,0.6,1.3
				c0.3,0.4,0.7,0.6,1.1,0.9c0.5,0.2,1,0.3,1.7,0.3c0.4,0,0.8,0,1.1-0.1c0.3,0,0.6-0.1,0.9-0.2c0.3-0.1,0.5-0.1,0.7-0.2
				c0.2-0.1,0.4-0.2,0.5-0.2l0.8,2.3c-0.4,0.2-1,0.5-1.7,0.6C67.6,36.6,66.8,36.7,65.9,36.7z"/>
			<path class="st0" d="M74.9,26.7c0.8,0,1.5,0.1,2,0.3c0.5,0.2,1,0.4,1.3,0.8c0.3,0.3,0.5,0.7,0.7,1.2c0.1,0.5,0.2,1,0.2,1.6v5.6
				c-0.4,0.1-0.9,0.2-1.6,0.3c-0.7,0.1-1.5,0.2-2.5,0.2c-0.6,0-1.2-0.1-1.7-0.2c-0.5-0.1-0.9-0.3-1.3-0.5c-0.4-0.2-0.6-0.6-0.8-1
				c-0.2-0.4-0.3-0.9-0.3-1.5c0-0.6,0.1-1,0.3-1.4c0.2-0.4,0.5-0.7,0.9-0.9c0.4-0.2,0.8-0.4,1.3-0.5c0.5-0.1,1-0.2,1.5-0.2
				c0.3,0,0.7,0,0.9,0c0.3,0,0.5,0.1,0.7,0.1v-0.3c0-0.5-0.1-0.8-0.4-1.1c-0.3-0.3-0.8-0.4-1.4-0.4c-0.5,0-0.9,0-1.4,0.1
				c-0.4,0.1-0.8,0.2-1.2,0.3l-0.3-2.2c0.2,0,0.4-0.1,0.6-0.2c0.2-0.1,0.5-0.1,0.8-0.1c0.3,0,0.6-0.1,0.9-0.1
				C74.3,26.7,74.6,26.7,74.9,26.7z M77.5,24.1L73.7,26l-0.9-1.4l3.6-2.4L77.5,24.1z M75.1,34.6c0.3,0,0.5,0,0.8,0
				c0.2,0,0.4,0,0.6-0.1v-2c-0.1,0-0.3,0-0.5-0.1c-0.2,0-0.4,0-0.6,0c-0.3,0-0.5,0-0.7,0c-0.2,0-0.4,0.1-0.6,0.2
				c-0.2,0.1-0.3,0.2-0.4,0.3c-0.1,0.1-0.1,0.3-0.1,0.5c0,0.4,0.1,0.7,0.4,0.9C74.2,34.5,74.6,34.6,75.1,34.6z"/>
			<path class="st0" d="M86.4,31.4c0-0.9-0.1-1.5-0.3-1.8c-0.2-0.4-0.6-0.5-1.1-0.5c-0.2,0-0.3,0-0.5,0c-0.2,0-0.4,0-0.5,0.1v7.3
				h-2.7v-9.1c0.2-0.1,0.5-0.1,0.8-0.2c0.3-0.1,0.6-0.1,1-0.2c0.3-0.1,0.7-0.1,1.1-0.1c0.4,0,0.7,0,1.1,0c0.7,0,1.2,0.1,1.7,0.3
				c0.4,0.2,0.8,0.4,1.1,0.6c0.4-0.3,0.8-0.5,1.3-0.6c0.5-0.2,1-0.2,1.4-0.2c0.8,0,1.4,0.1,1.9,0.3c0.5,0.2,0.9,0.5,1.2,0.9
				c0.3,0.4,0.5,0.8,0.6,1.4c0.1,0.5,0.2,1.1,0.2,1.8v5.3h-2.7v-5c0-0.9-0.1-1.5-0.3-1.8C91,29.2,90.6,29,90.1,29
				c-0.1,0-0.3,0-0.6,0.1c-0.3,0.1-0.5,0.2-0.6,0.3c0.1,0.3,0.1,0.6,0.2,0.9c0,0.3,0,0.6,0,1v5.2h-2.7V31.4z"/>
			<path class="st0" d="M99.8,26.7c0.8,0,1.5,0.1,2,0.3c0.5,0.2,1,0.4,1.3,0.8c0.3,0.3,0.5,0.7,0.7,1.2c0.1,0.5,0.2,1,0.2,1.6v5.6
				c-0.4,0.1-0.9,0.2-1.6,0.3c-0.7,0.1-1.5,0.2-2.5,0.2c-0.6,0-1.2-0.1-1.7-0.2c-0.5-0.1-0.9-0.3-1.3-0.5c-0.4-0.2-0.6-0.6-0.8-1
				c-0.2-0.4-0.3-0.9-0.3-1.5c0-0.6,0.1-1,0.3-1.4c0.2-0.4,0.5-0.7,0.9-0.9c0.4-0.2,0.8-0.4,1.3-0.5c0.5-0.1,1-0.2,1.5-0.2
				c0.3,0,0.7,0,0.9,0c0.3,0,0.5,0.1,0.7,0.1v-0.3c0-0.5-0.1-0.8-0.4-1.1c-0.3-0.3-0.8-0.4-1.4-0.4c-0.5,0-0.9,0-1.4,0.1
				c-0.4,0.1-0.8,0.2-1.2,0.3l-0.3-2.2c0.2,0,0.4-0.1,0.6-0.2c0.2-0.1,0.5-0.1,0.8-0.1c0.3,0,0.6-0.1,0.9-0.1
				C99.2,26.7,99.5,26.7,99.8,26.7z M100,34.6c0.3,0,0.5,0,0.8,0c0.2,0,0.4,0,0.6-0.1v-2c-0.1,0-0.3,0-0.5-0.1c-0.2,0-0.4,0-0.6,0
				c-0.3,0-0.5,0-0.7,0c-0.2,0-0.4,0.1-0.6,0.2c-0.2,0.1-0.3,0.2-0.4,0.3c-0.1,0.1-0.1,0.3-0.1,0.5c0,0.4,0.1,0.7,0.4,0.9
				C99.1,34.5,99.5,34.6,100,34.6z"/>
			<path class="st0" d="M111.8,29.3c-0.2-0.1-0.5-0.1-0.8-0.2c-0.3-0.1-0.7-0.1-1-0.1c-0.2,0-0.4,0-0.6,0c-0.2,0-0.4,0.1-0.5,0.1
				v7.2h-2.7v-9c0.5-0.2,1-0.3,1.7-0.5c0.7-0.1,1.4-0.2,2.2-0.2c0.1,0,0.3,0,0.5,0c0.2,0,0.4,0,0.6,0.1c0.2,0,0.4,0.1,0.6,0.1
				c0.2,0,0.4,0.1,0.5,0.2L111.8,29.3z"/>
			<path class="st0" d="M116.7,26.7c0.8,0,1.5,0.1,2,0.3c0.5,0.2,1,0.4,1.3,0.8c0.3,0.3,0.5,0.7,0.7,1.2c0.1,0.5,0.2,1,0.2,1.6v5.6
				c-0.4,0.1-0.9,0.2-1.6,0.3c-0.7,0.1-1.5,0.2-2.5,0.2c-0.6,0-1.2-0.1-1.7-0.2c-0.5-0.1-0.9-0.3-1.3-0.5c-0.4-0.2-0.6-0.6-0.8-1
				c-0.2-0.4-0.3-0.9-0.3-1.5c0-0.6,0.1-1,0.3-1.4c0.2-0.4,0.5-0.7,0.9-0.9c0.4-0.2,0.8-0.4,1.3-0.5c0.5-0.1,1-0.2,1.5-0.2
				c0.3,0,0.7,0,0.9,0c0.3,0,0.5,0.1,0.7,0.1v-0.3c0-0.5-0.1-0.8-0.4-1.1c-0.3-0.3-0.8-0.4-1.4-0.4c-0.5,0-0.9,0-1.4,0.1
				c-0.4,0.1-0.8,0.2-1.2,0.3l-0.3-2.2c0.2,0,0.4-0.1,0.6-0.2c0.2-0.1,0.5-0.1,0.8-0.1c0.3,0,0.6-0.1,0.9-0.1
				C116.1,26.7,116.4,26.7,116.7,26.7z M116.9,34.6c0.3,0,0.5,0,0.8,0c0.2,0,0.4,0,0.6-0.1v-2c-0.1,0-0.3,0-0.5-0.1
				c-0.2,0-0.4,0-0.6,0c-0.3,0-0.5,0-0.7,0c-0.2,0-0.4,0.1-0.6,0.2c-0.2,0.1-0.3,0.2-0.4,0.3c-0.1,0.1-0.1,0.3-0.1,0.5
				c0,0.4,0.1,0.7,0.4,0.9C116,34.5,116.4,34.6,116.9,34.6z"/>
		</g>
		<g>
			<path class="st0" d="M134.9,36.1c-0.2,0.1-0.5,0.1-0.8,0.2c-0.3,0.1-0.6,0.1-1,0.2c-0.3,0-0.7,0.1-1,0.1c-0.4,0-0.7,0-1,0
				c-0.8,0-1.5-0.1-2.1-0.3c-0.6-0.2-1.1-0.6-1.5-1c-0.4-0.4-0.7-0.9-1-1.5c-0.2-0.6-0.3-1.3-0.3-2c0-0.8,0.1-1.5,0.3-2.1
				c0.2-0.6,0.5-1.1,0.8-1.6c0.4-0.4,0.8-0.8,1.3-1c0.5-0.2,1.1-0.3,1.8-0.3c0.4,0,0.7,0,1,0.1c0.3,0.1,0.6,0.2,0.9,0.3v-4.3
				l2.7-0.4V36.1z M128.9,31.6c0,0.8,0.2,1.5,0.6,2c0.4,0.5,0.9,0.8,1.7,0.8c0.2,0,0.5,0,0.7,0c0.2,0,0.4,0,0.5-0.1v-4.9
				c-0.2-0.1-0.4-0.2-0.7-0.3c-0.3-0.1-0.5-0.1-0.8-0.1C129.5,29,128.9,29.9,128.9,31.6z"/>
			<path class="st0" d="M136.7,31.8c0-0.8,0.1-1.6,0.4-2.2c0.3-0.6,0.6-1.2,1-1.6c0.4-0.4,0.9-0.7,1.4-1c0.5-0.2,1.1-0.3,1.7-0.3
				c1.3,0,2.4,0.4,3.2,1.2c0.8,0.8,1.2,2,1.2,3.6c0,0.2,0,0.3,0,0.5c0,0.2,0,0.4,0,0.5h-6.1c0.1,0.6,0.3,1,0.8,1.3
				c0.5,0.3,1.1,0.5,1.8,0.5c0.5,0,1,0,1.4-0.1c0.5-0.1,0.9-0.2,1.2-0.3l0.4,2.2c-0.1,0.1-0.3,0.1-0.6,0.2c-0.2,0.1-0.5,0.1-0.8,0.2
				c-0.3,0.1-0.6,0.1-0.9,0.1c-0.3,0-0.7,0.1-1,0.1c-0.9,0-1.6-0.1-2.2-0.4c-0.6-0.3-1.2-0.6-1.6-1c-0.4-0.4-0.7-1-0.9-1.6
				C136.8,33.1,136.7,32.5,136.7,31.8z M143,30.7c0-0.2-0.1-0.5-0.1-0.7c-0.1-0.2-0.2-0.4-0.3-0.6c-0.1-0.2-0.3-0.3-0.5-0.4
				c-0.2-0.1-0.5-0.2-0.8-0.2c-0.3,0-0.6,0.1-0.8,0.2c-0.2,0.1-0.4,0.2-0.5,0.4c-0.1,0.2-0.3,0.4-0.3,0.6c-0.1,0.2-0.1,0.4-0.2,0.7
				H143z"/>
		</g>
		<g>
			<path class="st0" d="M149.7,52.6c-0.2,0.1-0.5,0.1-0.8,0.2c-0.3,0.1-0.6,0.1-1,0.2c-0.3,0-0.7,0.1-1,0.1c-0.4,0-0.7,0-1,0
				c-0.8,0-1.5-0.1-2.1-0.3c-0.6-0.2-1.1-0.6-1.5-1c-0.4-0.4-0.7-0.9-1-1.5c-0.2-0.6-0.3-1.3-0.3-2c0-0.8,0.1-1.5,0.3-2.1
				c0.2-0.6,0.5-1.1,0.8-1.6c0.4-0.4,0.8-0.8,1.3-1c0.5-0.2,1.1-0.3,1.8-0.3c0.4,0,0.7,0,1,0.1c0.3,0.1,0.6,0.2,0.9,0.3v-4.3
				l2.7-0.4V52.6z M143.6,48.1c0,0.8,0.2,1.5,0.6,2c0.4,0.5,0.9,0.8,1.7,0.8c0.2,0,0.5,0,0.7,0c0.2,0,0.4,0,0.5-0.1v-4.9
				c-0.2-0.1-0.4-0.2-0.7-0.3c-0.3-0.1-0.5-0.1-0.8-0.1C144.2,45.5,143.6,46.4,143.6,48.1z"/>
			<path class="st0" d="M151.4,48.3c0-0.8,0.1-1.6,0.4-2.2c0.3-0.6,0.6-1.2,1-1.6c0.4-0.4,0.9-0.7,1.4-1c0.5-0.2,1.1-0.3,1.7-0.3
				c1.3,0,2.4,0.4,3.2,1.2c0.8,0.8,1.2,2,1.2,3.6c0,0.2,0,0.3,0,0.5c0,0.2,0,0.4,0,0.5h-6.1c0.1,0.6,0.3,1,0.8,1.3
				c0.5,0.3,1.1,0.5,1.8,0.5c0.5,0,1,0,1.4-0.1c0.5-0.1,0.9-0.2,1.2-0.3l0.4,2.2c-0.1,0.1-0.3,0.1-0.6,0.2c-0.2,0.1-0.5,0.1-0.8,0.2
				c-0.3,0.1-0.6,0.1-0.9,0.1c-0.3,0-0.7,0.1-1,0.1c-0.9,0-1.6-0.1-2.2-0.4c-0.6-0.3-1.2-0.6-1.6-1c-0.4-0.4-0.7-1-0.9-1.6
				C151.5,49.6,151.4,49,151.4,48.3z M157.7,47.2c0-0.2-0.1-0.5-0.1-0.7c-0.1-0.2-0.2-0.4-0.3-0.6c-0.1-0.2-0.3-0.3-0.5-0.4
				c-0.2-0.1-0.5-0.2-0.8-0.2c-0.3,0-0.6,0.1-0.8,0.2c-0.2,0.1-0.4,0.2-0.5,0.4c-0.1,0.2-0.3,0.4-0.3,0.6c-0.1,0.2-0.1,0.4-0.2,0.7
				H157.7z"/>
		</g>
		<g>
			<path class="st0" d="M65.9,53.2c-2,0-3.6-0.6-4.6-1.7c-1.1-1.1-1.6-2.7-1.6-4.8c0-1,0.2-2,0.5-2.8c0.3-0.8,0.8-1.5,1.3-2.1
				c0.6-0.6,1.2-1,2-1.3c0.8-0.3,1.6-0.4,2.5-0.4c0.5,0,1,0,1.4,0.1c0.4,0.1,0.8,0.2,1.1,0.3c0.3,0.1,0.6,0.2,0.8,0.3
				c0.2,0.1,0.4,0.2,0.5,0.3L69,43.4c-0.4-0.2-0.8-0.4-1.3-0.5c-0.5-0.1-1.1-0.2-1.7-0.2c-0.4,0-0.9,0.1-1.3,0.2
				c-0.4,0.1-0.8,0.4-1.1,0.7c-0.3,0.3-0.6,0.7-0.8,1.2c-0.2,0.5-0.3,1.1-0.3,1.8c0,0.6,0.1,1.1,0.2,1.6c0.1,0.5,0.3,0.9,0.6,1.3
				c0.3,0.4,0.7,0.6,1.1,0.9c0.5,0.2,1,0.3,1.7,0.3c0.4,0,0.8,0,1.1-0.1c0.3,0,0.6-0.1,0.9-0.2c0.3-0.1,0.5-0.1,0.7-0.2
				c0.2-0.1,0.4-0.2,0.5-0.2l0.8,2.3c-0.4,0.2-1,0.5-1.7,0.6C67.6,53.1,66.8,53.2,65.9,53.2z"/>
			<path class="st0" d="M80,48.2c0,0.7-0.1,1.4-0.3,2c-0.2,0.6-0.5,1.1-0.9,1.6c-0.4,0.4-0.9,0.8-1.5,1c-0.6,0.2-1.2,0.4-1.9,0.4
				c-0.7,0-1.3-0.1-1.9-0.4c-0.6-0.2-1.1-0.6-1.5-1c-0.4-0.4-0.7-1-1-1.6c-0.2-0.6-0.3-1.3-0.3-2c0-0.7,0.1-1.4,0.4-2
				c0.2-0.6,0.6-1.1,1-1.6c0.4-0.4,0.9-0.8,1.5-1c0.6-0.2,1.2-0.4,1.9-0.4c0.7,0,1.3,0.1,1.9,0.4c0.6,0.2,1.1,0.6,1.5,1
				c0.4,0.4,0.7,1,1,1.6C79.8,46.7,80,47.4,80,48.2z M77.2,48.2c0-0.8-0.2-1.5-0.5-2c-0.3-0.5-0.8-0.7-1.4-0.7
				c-0.6,0-1.1,0.2-1.4,0.7c-0.3,0.5-0.5,1.1-0.5,2c0,0.8,0.2,1.5,0.5,2c0.3,0.5,0.8,0.7,1.4,0.7c0.6,0,1.1-0.2,1.4-0.7
				C77.1,49.7,77.2,49,77.2,48.2z"/>
			<path class="st0" d="M86.9,47.9c0-0.9-0.1-1.5-0.3-1.8c-0.2-0.4-0.6-0.5-1.1-0.5c-0.2,0-0.3,0-0.5,0c-0.2,0-0.4,0-0.5,0.1v7.3
				h-2.7v-9.1c0.2-0.1,0.5-0.1,0.8-0.2c0.3-0.1,0.6-0.1,1-0.2c0.3-0.1,0.7-0.1,1.1-0.1c0.4,0,0.7,0,1.1,0c0.7,0,1.2,0.1,1.7,0.3
				c0.4,0.2,0.8,0.4,1.1,0.6c0.4-0.3,0.8-0.5,1.3-0.6c0.5-0.2,1-0.2,1.4-0.2c0.8,0,1.4,0.1,1.9,0.3c0.5,0.2,0.9,0.5,1.2,0.9
				c0.3,0.4,0.5,0.8,0.6,1.4c0.1,0.5,0.2,1.1,0.2,1.8v5.3h-2.7v-5c0-0.9-0.1-1.5-0.3-1.8c-0.2-0.4-0.6-0.5-1.1-0.5
				c-0.1,0-0.3,0-0.6,0.1c-0.3,0.1-0.5,0.2-0.6,0.3c0.1,0.3,0.1,0.6,0.2,0.9c0,0.3,0,0.6,0,1v5.2h-2.7V47.9z"/>
			<path class="st0" d="M96.4,48.3c0-0.8,0.1-1.6,0.4-2.2c0.3-0.6,0.6-1.2,1-1.6c0.4-0.4,0.9-0.7,1.4-1c0.5-0.2,1.1-0.3,1.7-0.3
				c1.3,0,2.4,0.4,3.2,1.2c0.8,0.8,1.2,2,1.2,3.6c0,0.2,0,0.3,0,0.5c0,0.2,0,0.4,0,0.5h-6.1c0.1,0.6,0.3,1,0.8,1.3
				c0.5,0.3,1.1,0.5,1.8,0.5c0.5,0,1,0,1.4-0.1c0.5-0.1,0.9-0.2,1.2-0.3l0.4,2.2c-0.1,0.1-0.3,0.1-0.6,0.2c-0.2,0.1-0.5,0.1-0.8,0.2
				c-0.3,0.1-0.6,0.1-0.9,0.1c-0.3,0-0.7,0.1-1,0.1c-0.9,0-1.6-0.1-2.2-0.4c-0.6-0.3-1.2-0.6-1.6-1c-0.4-0.4-0.7-1-0.9-1.6
				C96.5,49.6,96.4,49,96.4,48.3z M102.7,47.2c0-0.2-0.1-0.5-0.1-0.7c-0.1-0.2-0.2-0.4-0.3-0.6c-0.1-0.2-0.3-0.3-0.5-0.4
				c-0.2-0.1-0.5-0.2-0.8-0.2c-0.3,0-0.6,0.1-0.8,0.2c-0.2,0.1-0.4,0.2-0.5,0.4c-0.1,0.2-0.3,0.4-0.3,0.6c-0.1,0.2-0.1,0.4-0.2,0.7
				H102.7z"/>
			<path class="st0" d="M112.8,45.8c-0.2-0.1-0.5-0.1-0.8-0.2c-0.3-0.1-0.7-0.1-1-0.1c-0.2,0-0.4,0-0.6,0c-0.2,0-0.4,0.1-0.5,0.1
				v7.2h-2.7v-9c0.5-0.2,1-0.3,1.7-0.5c0.7-0.2,1.4-0.2,2.2-0.2c0.1,0,0.3,0,0.5,0c0.2,0,0.4,0,0.6,0.1c0.2,0,0.4,0.1,0.6,0.1
				c0.2,0,0.4,0.1,0.5,0.2L112.8,45.8z"/>
			<path class="st0" d="M113.8,48.2c0-0.7,0.1-1.3,0.3-1.9c0.2-0.6,0.5-1.1,1-1.6c0.4-0.5,0.9-0.8,1.5-1.1c0.6-0.3,1.3-0.4,2.1-0.4
				c0.5,0,1,0,1.4,0.1c0.4,0.1,0.8,0.2,1.2,0.4l-0.6,2.1c-0.3-0.1-0.5-0.2-0.8-0.3c-0.3-0.1-0.6-0.1-1-0.1c-0.8,0-1.4,0.2-1.8,0.7
				c-0.4,0.5-0.6,1.1-0.6,1.9c0,0.9,0.2,1.5,0.5,2c0.4,0.5,1,0.7,1.9,0.7c0.3,0,0.7,0,1-0.1c0.4-0.1,0.7-0.2,1-0.3l0.4,2.2
				c-0.3,0.1-0.7,0.2-1.2,0.3c-0.5,0.1-1,0.1-1.5,0.1c-0.9,0-1.6-0.1-2.2-0.4c-0.6-0.3-1.1-0.6-1.5-1.1c-0.4-0.4-0.7-1-0.9-1.6
				C113.9,49.6,113.8,48.9,113.8,48.2z"/>
			<path class="st0" d="M125.8,40.7c0,0.5-0.2,0.9-0.5,1.2c-0.3,0.3-0.7,0.4-1.1,0.4c-0.4,0-0.8-0.1-1.1-0.4
				c-0.3-0.3-0.5-0.7-0.5-1.2c0-0.5,0.2-0.9,0.5-1.2c0.3-0.3,0.7-0.4,1.1-0.4c0.4,0,0.8,0.1,1.1,0.4
				C125.7,39.8,125.8,40.2,125.8,40.7z M125.6,52.9h-2.7v-9.5h2.7V52.9z"/>
			<path class="st0" d="M136.6,48.2c0,0.7-0.1,1.4-0.3,2c-0.2,0.6-0.5,1.1-0.9,1.6c-0.4,0.4-0.9,0.8-1.5,1c-0.6,0.2-1.2,0.4-1.9,0.4
				c-0.7,0-1.3-0.1-1.9-0.4c-0.6-0.2-1.1-0.6-1.5-1c-0.4-0.4-0.7-1-1-1.6c-0.2-0.6-0.3-1.3-0.3-2c0-0.7,0.1-1.4,0.4-2
				c0.2-0.6,0.6-1.1,1-1.6c0.4-0.4,0.9-0.8,1.5-1c0.6-0.2,1.2-0.4,1.9-0.4c0.7,0,1.3,0.1,1.9,0.4c0.6,0.2,1.1,0.6,1.5,1
				c0.4,0.4,0.7,1,1,1.6C136.5,46.7,136.6,47.4,136.6,48.2z M133.9,48.2c0-0.8-0.2-1.5-0.5-2c-0.3-0.5-0.8-0.7-1.4-0.7
				c-0.6,0-1.1,0.2-1.4,0.7c-0.3,0.5-0.5,1.1-0.5,2c0,0.8,0.2,1.5,0.5,2c0.3,0.5,0.8,0.7,1.4,0.7c0.6,0,1.1-0.2,1.4-0.7
				C133.7,49.7,133.9,49,133.9,48.2z"/>
		</g>
		<g>
			<path class="st0" d="M65.9,69.7c-2,0-3.6-0.6-4.6-1.7c-1.1-1.1-1.6-2.7-1.6-4.8c0-1,0.2-2,0.5-2.8c0.3-0.8,0.8-1.5,1.3-2.1
				c0.6-0.6,1.2-1,2-1.3c0.8-0.3,1.6-0.4,2.5-0.4c0.5,0,1,0,1.4,0.1c0.4,0.1,0.8,0.2,1.1,0.3c0.3,0.1,0.6,0.2,0.8,0.3
				c0.2,0.1,0.4,0.2,0.5,0.3L69,59.9c-0.4-0.2-0.8-0.4-1.3-0.5c-0.5-0.1-1.1-0.2-1.7-0.2c-0.4,0-0.9,0.1-1.3,0.2
				c-0.4,0.1-0.8,0.4-1.1,0.7c-0.3,0.3-0.6,0.7-0.8,1.2c-0.2,0.5-0.3,1.1-0.3,1.8c0,0.6,0.1,1.1,0.2,1.6c0.1,0.5,0.3,0.9,0.6,1.3
				c0.3,0.4,0.7,0.6,1.1,0.9c0.5,0.2,1,0.3,1.7,0.3c0.4,0,0.8,0,1.1-0.1c0.3,0,0.6-0.1,0.9-0.2c0.3-0.1,0.5-0.1,0.7-0.2
				c0.2-0.1,0.4-0.2,0.5-0.2l0.8,2.2c-0.4,0.2-1,0.5-1.7,0.6C67.6,69.6,66.8,69.7,65.9,69.7z"/>
			<path class="st0" d="M74.9,59.7c0.8,0,1.5,0.1,2,0.3c0.5,0.2,1,0.4,1.3,0.8c0.3,0.3,0.5,0.7,0.7,1.2c0.1,0.5,0.2,1,0.2,1.6v5.6
				c-0.4,0.1-0.9,0.2-1.6,0.3c-0.7,0.1-1.5,0.2-2.5,0.2c-0.6,0-1.2-0.1-1.7-0.2c-0.5-0.1-0.9-0.3-1.3-0.5c-0.4-0.2-0.6-0.6-0.8-1
				c-0.2-0.4-0.3-0.9-0.3-1.5c0-0.6,0.1-1,0.3-1.4c0.2-0.4,0.5-0.7,0.9-0.9s0.8-0.4,1.3-0.5c0.5-0.1,1-0.2,1.5-0.2
				c0.3,0,0.7,0,0.9,0c0.3,0,0.5,0.1,0.7,0.1v-0.3c0-0.5-0.1-0.8-0.4-1.1c-0.3-0.3-0.8-0.4-1.4-0.4c-0.5,0-0.9,0-1.4,0.1
				c-0.4,0.1-0.8,0.2-1.2,0.3l-0.3-2.2c0.2,0,0.4-0.1,0.6-0.2c0.2-0.1,0.5-0.1,0.8-0.1c0.3,0,0.6-0.1,0.9-0.1
				C74.3,59.7,74.6,59.7,74.9,59.7z M75.1,67.5c0.3,0,0.5,0,0.8,0c0.2,0,0.4,0,0.6-0.1v-2c-0.1,0-0.3,0-0.5-0.1c-0.2,0-0.4,0-0.6,0
				c-0.3,0-0.5,0-0.7,0c-0.2,0-0.4,0.1-0.6,0.2c-0.2,0.1-0.3,0.2-0.4,0.3c-0.1,0.1-0.1,0.3-0.1,0.5c0,0.4,0.1,0.7,0.4,0.9
				C74.2,67.5,74.6,67.5,75.1,67.5z"/>
			<path class="st0" d="M84.9,69.6c-0.8,0-1.4-0.1-1.9-0.3c-0.5-0.2-0.9-0.4-1.2-0.7c-0.3-0.3-0.5-0.6-0.6-1
				c-0.1-0.4-0.2-0.9-0.2-1.4V55.9l2.7-0.4v10.3c0,0.2,0,0.5,0.1,0.6c0,0.2,0.1,0.4,0.2,0.5c0.1,0.1,0.2,0.2,0.4,0.3
				c0.2,0.1,0.5,0.1,0.8,0.2L84.9,69.6z"/>
			<path class="st0" d="M89.4,57.2c0,0.5-0.2,0.9-0.5,1.2c-0.3,0.3-0.7,0.4-1.1,0.4c-0.4,0-0.8-0.1-1.1-0.4
				c-0.3-0.3-0.5-0.7-0.5-1.2c0-0.5,0.2-0.9,0.5-1.2c0.3-0.3,0.7-0.4,1.1-0.4c0.4,0,0.8,0.1,1.1,0.4C89.3,56.3,89.4,56.7,89.4,57.2z
				 M89.2,69.4h-2.7v-9.5h2.7V69.4z"/>
		</g>
	</g>
	<g>
		<linearGradient id="SVGID_3_" gradientUnits="userSpaceOnUse" x1="15.936" y1="8.3049" x2="37.5554" y2="51.9333">
			<stop  offset="2.565870e-03" style="stop-color:#D3256B"/>
			<stop  offset="0.1272" style="stop-color:#B22972"/>
			<stop  offset="0.3065" style="stop-color:#892E7B"/>
			<stop  offset="0.3988" style="stop-color:#79307F"/>
			<stop  offset="0.4562" style="stop-color:#683280"/>
			<stop  offset="0.5801" style="stop-color:#4A3682"/>
			<stop  offset="0.7017" style="stop-color:#343984"/>
			<stop  offset="0.8189" style="stop-color:#273A85"/>
			<stop  offset="0.9268" style="stop-color:#233B85"/>
		</linearGradient>
		<path class="st1" d="M26.5,46.3c-11,0-19.9-8.9-19.9-19.9c0-11,8.9-19.9,19.9-19.9c4.4,0,8.5,1.4,11.8,3.9l3.9-5.3
			C37.8,1.9,32.4,0,26.5,0C11.9,0,0,11.9,0,26.5C0,41.1,11.9,53,26.5,53C41.1,53,53,41.1,53,26.5h-6.6
			C46.3,37.5,37.5,46.3,26.5,46.3z"/>
		<linearGradient id="SVGID_4_" gradientUnits="userSpaceOnUse" x1="26.8771" y1="46.9883" x2="26.0838" y2="5.5344">
			<stop  offset="7.361960e-02" style="stop-color:#4CA980"/>
			<stop  offset="0.1551" style="stop-color:#449C84"/>
			<stop  offset="0.3061" style="stop-color:#2E7990"/>
			<stop  offset="0.4294" style="stop-color:#19589B"/>
			<stop  offset="0.5361" style="stop-color:#1D4C92"/>
			<stop  offset="0.7136" style="stop-color:#213F88"/>
			<stop  offset="0.8773" style="stop-color:#233B85"/>
		</linearGradient>
		<path class="st2" d="M34.3,37.2c-2.2,1.6-4.9,2.6-7.9,2.6c-7.3,0-13.2-5.9-13.2-13.2c0-7.3,5.9-13.2,13.2-13.2
			c7.3,0,13.2,5.9,13.2,13.2h6.6c0-11-8.9-19.9-19.9-19.9c-11,0-19.9,8.9-19.9,19.9c0,11,8.9,19.9,19.9,19.9c4.4,0,8.5-1.4,11.8-3.9
			L34.3,37.2z"/>
		<linearGradient id="SVGID_5_" gradientUnits="userSpaceOnUse" x1="20.4819" y1="14.199" x2="32.6924" y2="42.0232">
			<stop  offset="0" style="stop-color:#6BBACB"/>
			<stop  offset="0.272" style="stop-color:#3C83B1"/>
			<stop  offset="0.4969" style="stop-color:#195A9D"/>
			<stop  offset="0.8221" style="stop-color:#233B85"/>
		</linearGradient>
		<path class="st3" d="M26.5,33.1c-3.7,0-6.6-3-6.6-6.6c0-3.7,3-6.6,6.6-6.6c1.5,0,2.8,0.5,3.9,1.3l3.9-5.3
			c-2.2-1.6-4.9-2.6-7.9-2.6c-7.3,0-13.2,5.9-13.2,13.2c0,7.3,5.9,13.2,13.2,13.2c7.3,0,13.2-5.9,13.2-13.2h-6.6
			C33.1,30.1,30.1,33.1,26.5,33.1z"/>
	</g>
</g>
</svg>
